<svg width="350" height="118" viewBox="0 0 350 118" fill="none" xmlns="http://www.w3.org/2000/svg">
<path d="M347.017 25.0034C347.017 28.1348 347.19 28.1348 347.19 31.2553C347.19 34.3759 347.418 34.3867 347.418 37.5073C347.418 40.6278 347.006 40.6387 347.006 43.7592C347.006 46.8798 346.605 46.8798 346.605 50.0112C346.605 53.1426 347.255 53.1426 347.255 56.2631C347.255 59.3837 346.724 59.3945 346.724 62.5151C346.724 65.6356 346.627 65.6465 346.627 68.767C346.627 71.8876 346.627 71.8984 346.627 75.019C346.627 78.1395 346.952 78.1504 346.952 81.2818C346.952 84.4131 347.385 84.4132 347.385 87.5337C347.385 90.6543 346.941 90.6651 346.941 93.7965C346.941 96.9279 346.974 96.9279 346.974 100.059C346.974 103.191 347.277 103.191 347.277 106.322C347.277 108.901 345.944 111.339 344.254 113.018C342.564 114.698 340.126 115.521 337.558 115.521C334.296 115.521 334.296 115.467 331.046 115.467C327.795 115.467 327.784 115.467 324.534 115.467C321.283 115.467 321.272 115.814 318.022 115.814C314.771 115.814 314.76 115.695 311.51 115.695C308.259 115.695 308.248 116.009 304.998 116.009C301.747 116.009 301.736 115.25 298.486 115.25C295.235 115.25 295.224 115.727 291.974 115.727C288.723 115.727 288.712 115.272 285.462 115.272C282.211 115.272 282.2 116.106 278.95 116.106C275.699 116.106 275.688 116.16 272.438 116.16C269.187 116.16 269.176 116.074 265.926 116.074C262.675 116.074 262.664 116.15 259.414 116.15C256.163 116.15 256.152 115.565 252.902 115.565C249.651 115.565 249.64 116.041 246.39 116.041C243.139 116.041 243.128 115.955 239.878 115.955C236.627 115.955 236.616 115.619 233.366 115.619C230.115 115.619 230.104 115.294 226.854 115.294C223.603 115.294 223.603 116.063 220.342 116.063C217.08 116.063 217.091 115.738 213.83 115.738C210.568 115.738 210.579 115.695 207.318 115.695C204.056 115.695 204.056 115.76 200.806 115.76C197.555 115.76 197.555 116.106 194.294 116.106C191.032 116.106 191.043 115.25 187.782 115.25C184.52 115.25 184.52 115.478 181.27 115.478C178.019 115.478 178.008 115.294 174.758 115.294C171.507 115.294 171.496 115.619 168.246 115.619C164.995 115.619 164.984 115.846 161.734 115.846C158.483 115.846 158.472 115.478 155.222 115.478C151.971 115.478 151.96 115.803 148.71 115.803C145.459 115.803 145.448 115.521 142.198 115.521C138.947 115.521 138.936 115.63 135.686 115.63C132.435 115.63 132.424 115.435 129.174 115.435C125.923 115.435 125.912 115.662 122.662 115.662C119.411 115.662 119.4 115.976 116.15 115.976C112.899 115.976 112.888 115.89 109.638 115.89C106.387 115.89 106.376 115.89 103.115 115.89C99.8536 115.89 99.8536 115.803 96.5922 115.803C93.3308 115.803 93.3308 115.283 90.0694 115.283C86.8079 115.283 86.8079 115.109 83.5465 115.109C80.2851 115.109 80.2851 115.109 77.0237 115.109C73.7623 115.109 73.7623 115.51 70.5117 115.51C67.2611 115.51 67.2503 115.478 63.9997 115.478C60.7491 115.478 60.7383 116.16 57.4769 116.16C54.2154 116.16 54.2154 115.705 50.954 115.705C47.6926 115.705 47.6926 115.164 44.4312 115.164C41.1698 115.164 41.1698 116.15 37.9084 116.15C34.6469 116.15 34.6469 115.391 31.3964 115.391C28.1458 115.391 28.135 115.185 24.8735 115.185C21.6121 115.185 21.6121 115.554 18.3507 115.554C15.0893 115.554 15.0893 116.085 11.8279 116.085C9.24907 116.085 7.01701 114.492 5.32671 112.802C3.6364 111.111 2.46619 108.879 2.46619 106.3C2.46619 103.169 2.24949 103.169 2.24949 100.048C2.24949 96.9279 2.92128 96.9171 2.92128 93.7965C2.92128 90.6759 2.20615 90.6651 2.20615 87.5445C2.20615 84.424 2.19531 84.424 2.19531 81.2926C2.19531 78.1612 2.98629 78.1612 2.98629 75.0406C2.98629 71.9201 2.43369 71.9092 2.43369 68.7887C2.43369 65.6681 2.23865 65.6573 2.23865 62.5367C2.23865 59.4162 2.54204 59.4053 2.54204 56.2848C2.54204 53.1642 2.41202 53.1534 2.41202 50.022C2.41202 46.8906 2.35784 46.8906 2.35784 43.77C2.35784 40.6495 2.85626 40.6387 2.85626 37.5073C2.85626 34.3759 2.95378 34.3759 2.95378 31.2445C2.95378 28.1131 2.53121 28.1131 2.53121 24.9817" fill="url(#paint0_linear_870_3006)"/>
<path d="M347.017 25.0034C347.017 28.1348 347.19 28.1348 347.19 31.2553C347.19 34.3759 347.418 34.3867 347.418 37.5073C347.418 40.6278 347.006 40.6387 347.006 43.7592C347.006 46.8798 346.605 46.8798 346.605 50.0112C346.605 53.1426 347.255 53.1426 347.255 56.2631C347.255 59.3837 346.724 59.3945 346.724 62.5151C346.724 65.6356 346.627 65.6465 346.627 68.767C346.627 71.8876 346.627 71.8984 346.627 75.019C346.627 78.1395 346.952 78.1504 346.952 81.2818C346.952 84.4131 347.385 84.4132 347.385 87.5337C347.385 90.6543 346.941 90.6651 346.941 93.7965C346.941 96.9279 346.974 96.9279 346.974 100.059C346.974 103.191 347.277 103.191 347.277 106.322C347.277 108.901 345.944 111.339 344.254 113.018C342.564 114.698 340.126 115.521 337.558 115.521C334.296 115.521 334.296 115.467 331.046 115.467C327.795 115.467 327.784 115.467 324.534 115.467C321.283 115.467 321.272 115.814 318.022 115.814C314.771 115.814 314.76 115.695 311.51 115.695C308.259 115.695 308.248 116.009 304.998 116.009C301.747 116.009 301.736 115.25 298.486 115.25C295.235 115.25 295.224 115.727 291.974 115.727C288.723 115.727 288.712 115.272 285.462 115.272C282.211 115.272 282.2 116.106 278.95 116.106C275.699 116.106 275.688 116.16 272.438 116.16C269.187 116.16 269.176 116.074 265.926 116.074C262.675 116.074 262.664 116.15 259.414 116.15C256.163 116.15 256.152 115.565 252.902 115.565C249.651 115.565 249.64 116.041 246.39 116.041C243.139 116.041 243.128 115.955 239.878 115.955C236.627 115.955 236.616 115.619 233.366 115.619C230.115 115.619 230.104 115.294 226.854 115.294C223.603 115.294 223.603 116.063 220.342 116.063C217.08 116.063 217.091 115.738 213.83 115.738C210.568 115.738 210.579 115.695 207.318 115.695C204.056 115.695 204.056 115.76 200.806 115.76C197.555 115.76 197.555 116.106 194.294 116.106C191.032 116.106 191.043 115.25 187.782 115.25C184.52 115.25 184.52 115.478 181.27 115.478C178.019 115.478 178.008 115.294 174.758 115.294C171.507 115.294 171.496 115.619 168.246 115.619C164.995 115.619 164.984 115.846 161.734 115.846C158.483 115.846 158.472 115.478 155.222 115.478C151.971 115.478 151.96 115.803 148.71 115.803C145.459 115.803 145.448 115.521 142.198 115.521C138.947 115.521 138.936 115.63 135.686 115.63C132.435 115.63 132.424 115.435 129.174 115.435C125.923 115.435 125.912 115.662 122.662 115.662C119.411 115.662 119.4 115.976 116.15 115.976C112.899 115.976 112.888 115.89 109.638 115.89C106.387 115.89 106.376 115.89 103.115 115.89C99.8536 115.89 99.8536 115.803 96.5922 115.803C93.3308 115.803 93.3308 115.283 90.0694 115.283C86.8079 115.283 86.8079 115.109 83.5465 115.109C80.2851 115.109 80.2851 115.109 77.0237 115.109C73.7623 115.109 73.7623 115.51 70.5117 115.51C67.2611 115.51 67.2503 115.478 63.9997 115.478C60.7491 115.478 60.7383 116.16 57.4769 116.16C54.2154 116.16 54.2154 115.705 50.954 115.705C47.6926 115.705 47.6926 115.164 44.4312 115.164C41.1698 115.164 41.1698 116.15 37.9084 116.15C34.6469 116.15 34.6469 115.391 31.3964 115.391C28.1458 115.391 28.135 115.185 24.8735 115.185C21.6121 115.185 21.6121 115.554 18.3507 115.554C15.0893 115.554 15.0893 116.085 11.8279 116.085C9.24907 116.085 7.01701 114.492 5.32671 112.802C3.6364 111.111 2.46619 108.879 2.46619 106.3C2.46619 103.169 2.24949 103.169 2.24949 100.048C2.24949 96.9279 2.92128 96.9171 2.92128 93.7965C2.92128 90.6759 2.20615 90.6651 2.20615 87.5445C2.20615 84.424 2.19531 84.424 2.19531 81.2926C2.19531 78.1612 2.98629 78.1612 2.98629 75.0406C2.98629 71.9201 2.43369 71.9092 2.43369 68.7887C2.43369 65.6681 2.23865 65.6573 2.23865 62.5367C2.23865 59.4162 2.54204 59.4053 2.54204 56.2848C2.54204 53.1642 2.41202 53.1534 2.41202 50.022C2.41202 46.8906 2.35784 46.8906 2.35784 43.77C2.35784 40.6495 2.85626 40.6387 2.85626 37.5073C2.85626 34.3759 2.95378 34.3759 2.95378 31.2445C2.95378 28.1131 2.53121 28.1131 2.53121 24.9817" stroke="black" stroke-width="3.25058" stroke-linecap="round" stroke-linejoin="round"/>
<path d="M346.735 93.1788C346.735 95.7576 345.738 97.9788 344.059 99.6691C342.379 101.359 340.147 102.064 337.568 102.064C334.307 102.064 334.307 102.508 331.056 102.508C327.806 102.508 327.795 102.15 324.544 102.15C321.294 102.15 321.283 102.519 318.032 102.519C314.782 102.519 314.771 102.898 311.52 102.898C308.27 102.898 308.259 102.801 305.008 102.801C301.758 102.801 301.747 102.215 298.496 102.215C295.246 102.215 295.235 102.551 291.984 102.551C288.734 102.551 288.723 102.161 285.472 102.161C282.222 102.161 282.211 102.779 278.96 102.779C275.71 102.779 275.699 102.952 272.448 102.952C269.198 102.952 269.187 102.649 265.936 102.649C262.686 102.649 262.675 102.118 259.424 102.118C256.174 102.118 256.163 102.02 252.912 102.02C249.662 102.02 249.651 102.389 246.4 102.389C243.15 102.389 243.139 102.887 239.888 102.887C236.638 102.887 236.627 102.215 233.376 102.215C230.126 102.215 230.115 102.465 226.864 102.465C223.614 102.465 223.614 102.14 220.352 102.14C217.091 102.14 217.102 102.4 213.84 102.4C210.579 102.4 210.59 102.205 207.328 102.205C204.067 102.205 204.067 102.14 200.816 102.14C197.566 102.14 197.566 102.779 194.304 102.779C191.043 102.779 191.054 102.15 187.792 102.15C184.531 102.15 184.531 102.866 181.28 102.866C178.03 102.866 178.019 102.562 174.768 102.562C171.518 102.562 171.507 102.692 168.256 102.692C165.006 102.692 164.995 102.616 161.744 102.616C158.494 102.616 158.483 102.703 155.232 102.703C151.982 102.703 151.971 102.085 148.72 102.085C145.47 102.085 145.459 102.215 142.208 102.215C138.958 102.215 138.947 102.41 135.696 102.41C132.446 102.41 132.435 102.508 129.184 102.508C125.934 102.508 125.923 102.075 122.672 102.075C119.422 102.075 119.411 102.519 116.16 102.519C112.91 102.519 112.899 102.15 109.648 102.15C106.398 102.15 106.387 102.876 103.126 102.876C99.8642 102.876 99.8642 102.345 96.6028 102.345C93.3413 102.345 93.3413 101.999 90.0799 101.999C86.8185 101.999 86.8185 102.313 83.5571 102.313C80.2957 102.313 80.2957 102.291 77.0343 102.291C73.7728 102.291 73.7728 102.833 70.5223 102.833C67.2717 102.833 67.2608 102.215 64.0103 102.215C60.7597 102.215 60.7488 102.595 57.4874 102.595C54.226 102.595 54.226 102.703 50.9646 102.703C47.7032 102.703 47.7032 102.324 44.4418 102.324C41.1803 102.324 41.1803 102.638 37.9189 102.638C34.6575 102.638 34.6575 102.389 31.4069 102.389C28.1563 102.389 28.1455 103.006 24.8841 103.006C21.6227 103.006 21.6227 102.432 18.3613 102.432C15.0998 102.432 15.0998 102.519 11.8384 102.519C9.25963 102.519 7.08174 101.294 5.39144 99.6041C3.70114 97.9138 2.62845 95.7359 2.62845 93.1571C2.62845 90.0257 2.9535 90.0257 2.9535 86.9052C2.9535 83.7846 2.82348 83.7738 2.82348 80.6532C2.82348 77.5327 2.09752 77.5218 2.09752 74.4013C2.09752 71.2807 2.20587 71.2807 2.20587 68.1493C2.20587 65.0179 2.3684 65.0179 2.3684 61.8974C2.3684 58.7768 2.42258 58.766 2.42258 55.6454C2.42258 52.5249 2.70429 52.514 2.70429 49.3935C2.70429 46.2729 2.62845 46.2621 2.62845 43.1415C2.62845 40.021 2 40.0101 2 36.8787C2 33.7473 2.01084 33.7473 2.01084 30.6268C2.01084 27.5062 2.01084 27.4954 2.01084 24.364C2.01084 21.2326 3.00768 21.2326 3.00768 18.1012C3.00768 14.9698 2.32506 14.9698 2.32506 11.8384C2.32506 9.25963 3.79866 7.17926 5.48896 5.48896C7.17926 3.79865 9.25963 3.02935 11.8384 3.02935C15.0998 3.02935 15.0998 2.75847 18.3504 2.75847C21.601 2.75847 21.6118 2.42258 24.8624 2.42258C28.113 2.42258 28.1238 2.20587 31.3744 2.20587C34.625 2.20587 34.6358 3.01852 37.8864 3.01852C41.137 3.01852 41.1478 2.94267 44.3984 2.94267C47.649 2.94267 47.6598 2.61761 50.9104 2.61761C54.161 2.61761 54.1718 2.85599 57.4224 2.85599C60.673 2.85599 60.6838 2.10835 63.9344 2.10835C67.185 2.10835 67.1958 3.00768 70.4464 3.00768C73.697 3.00768 73.7078 2.23838 76.9584 2.23838C80.209 2.23838 80.2198 2.20587 83.4704 2.20587C86.721 2.20587 86.7318 2.921 89.9824 2.921C93.233 2.921 93.2438 2.921 96.4944 2.921C99.745 2.921 99.7558 2.66095 103.006 2.66095C106.257 2.66095 106.268 2.09752 109.518 2.09752C112.769 2.09752 112.78 2.47675 116.03 2.47675C119.281 2.47675 119.292 2.7368 122.542 2.7368C125.793 2.7368 125.793 2.30339 129.054 2.30339C132.316 2.30339 132.305 2.72596 135.566 2.72596C138.828 2.72596 138.817 2.5851 142.078 2.5851C145.34 2.5851 145.34 2.63928 148.59 2.63928C151.841 2.63928 151.841 2.07585 155.102 2.07585C158.364 2.07585 158.353 2.23838 161.614 2.23838C164.876 2.23838 164.876 2.15169 168.126 2.15169C171.377 2.15169 171.388 2.32506 174.638 2.32506C177.889 2.32506 177.9 2.84515 181.15 2.84515C184.401 2.84515 184.412 2.44425 187.662 2.44425C190.913 2.44425 190.924 2.01084 194.174 2.01084C197.425 2.01084 197.436 2.80181 200.686 2.80181C203.937 2.80181 203.948 2.44425 207.198 2.44425C210.449 2.44425 210.46 3.01852 213.71 3.01852C216.961 3.01852 216.972 2.9535 220.222 2.9535C223.473 2.9535 223.484 2.72596 226.734 2.72596C229.985 2.72596 229.996 2.98601 233.246 2.98601C236.497 2.98601 236.508 3.05102 239.758 3.05102C243.009 3.05102 243.02 2.67179 246.281 2.67179C249.543 2.67179 249.543 2.28172 252.804 2.28172C256.065 2.28172 256.065 2.53093 259.327 2.53093C262.588 2.53093 262.588 2.1842 265.85 2.1842C269.111 2.1842 269.111 2.59594 272.373 2.59594C275.634 2.59594 275.634 2.39007 278.885 2.39007C282.135 2.39007 282.146 2.39007 285.397 2.39007C288.647 2.39007 288.658 2.82348 291.919 2.82348C295.181 2.82348 295.181 2.24921 298.442 2.24921C301.704 2.24921 301.704 2.31422 304.965 2.31422C308.226 2.31422 308.226 2 311.488 2C314.749 2 314.749 2.29255 318 2.29255C321.25 2.29255 321.261 2.85599 324.523 2.85599C327.784 2.85599 327.784 2.15169 331.046 2.15169C334.307 2.15169 334.307 2.79097 337.568 2.79097C340.147 2.79097 342.423 3.61446 344.113 5.30476C345.803 6.99506 347.233 9.27047 347.233 11.8493C347.233 14.9807 347.147 14.9807 347.147 18.1012C347.147 21.2218 346.562 21.2326 346.562 24.3532C346.562 27.4737 346.703 27.4846 346.703 30.6051C346.703 33.7257 347.028 33.7257 347.028 36.8571C347.028 39.9885 346.551 39.9885 346.551 43.109C346.551 46.2296 346.659 46.2404 346.659 49.361C346.659 52.4815 347.179 52.4924 347.179 55.6129C347.179 58.7335 347.396 58.7443 347.396 61.8649C347.396 64.9854 346.984 64.9963 346.984 68.1277C346.984 71.2591 347.418 71.2591 347.418 74.3796C347.418 77.5002 346.54 77.511 346.54 80.6424C346.54 83.7738 346.995 83.7738 346.941 86.9052C346.887 90.0366 346.724 90.0366 346.724 93.168L346.735 93.1788Z" stroke="black" stroke-width="3.25058" stroke-linecap="round" stroke-linejoin="round"/>
<defs>
<linearGradient id="paint0_linear_870_3006" x1="2.19531" y1="24.9817" x2="47.2182" y2="195.448" gradientUnits="userSpaceOnUse">
<stop stop-color="#A372FF"/>
<stop offset="0.951042" stop-color="#46C9D2"/>
</linearGradient>
</defs>
</svg>
