<svg width="183" height="51" viewBox="0 0 183 51" fill="none" xmlns="http://www.w3.org/2000/svg">
<path d="M181.734 10.7704C181.734 12.1005 181.825 12.1005 181.825 13.4259C181.825 14.7514 181.944 14.756 181.944 16.0814C181.944 17.4068 181.728 17.4114 181.728 18.7369C181.728 20.0623 181.518 20.0623 181.518 21.3924C181.518 22.7224 181.859 22.7224 181.859 24.0478C181.859 25.3733 181.581 25.3779 181.581 26.7033C181.581 28.0288 181.53 28.0334 181.53 29.3588C181.53 30.6842 181.53 30.6888 181.53 32.0143C181.53 33.3397 181.7 33.3443 181.7 34.6744C181.7 36.0044 181.927 36.0044 181.927 37.3298C181.927 38.6553 181.694 38.6599 181.694 39.9899C181.694 41.32 181.711 41.32 181.711 42.65C181.711 43.98 181.87 43.98 181.87 45.3101C181.87 46.4054 181.172 47.4409 180.287 48.1543C179.401 48.8676 178.124 49.2174 176.779 49.2174C175.07 49.2174 175.07 49.1944 173.368 49.1944C171.665 49.1944 171.659 49.1944 169.956 49.1944C168.254 49.1944 168.248 49.3416 166.545 49.3416C164.842 49.3416 164.837 49.291 163.134 49.291C161.431 49.291 161.425 49.4245 159.723 49.4245C158.02 49.4245 158.014 49.1023 156.311 49.1023C154.608 49.1023 154.603 49.3048 152.9 49.3048C151.197 49.3048 151.192 49.1115 149.489 49.1115C147.786 49.1115 147.78 49.4659 146.077 49.4659C144.375 49.4659 144.369 49.4889 142.666 49.4889C140.963 49.4889 140.958 49.4521 139.255 49.4521C137.552 49.4521 137.546 49.4843 135.844 49.4843C134.141 49.4843 134.135 49.2358 132.432 49.2358C130.73 49.2358 130.724 49.4383 129.021 49.4383C127.318 49.4383 127.313 49.4015 125.61 49.4015C123.907 49.4015 123.901 49.2588 122.199 49.2588C120.496 49.2588 120.49 49.1207 118.787 49.1207C117.085 49.1207 117.085 49.4475 115.376 49.4475C113.668 49.4475 113.673 49.3094 111.965 49.3094C110.256 49.3094 110.262 49.291 108.554 49.291C106.845 49.291 106.845 49.3186 105.142 49.3186C103.439 49.3186 103.439 49.4659 101.731 49.4659C100.023 49.4659 100.028 49.1023 98.3198 49.1023C96.6113 49.1023 96.6113 49.199 94.9085 49.199C93.2057 49.199 93.2 49.1207 91.4972 49.1207C89.7944 49.1207 89.7888 49.2588 88.086 49.2588C86.3832 49.2588 86.3775 49.3554 84.6747 49.3554C82.9719 49.3554 82.9662 49.199 81.2634 49.199C79.5606 49.199 79.555 49.337 77.8522 49.337C76.1494 49.337 76.1437 49.2174 74.4409 49.2174C72.7381 49.2174 72.7324 49.2634 71.0296 49.2634C69.3268 49.2634 69.3212 49.1806 67.6184 49.1806C65.9156 49.1806 65.9099 49.2772 64.2071 49.2772C62.5043 49.2772 62.4986 49.4107 60.7958 49.4107C59.0931 49.4107 59.0874 49.3738 57.3846 49.3738C55.6818 49.3738 55.6761 49.3738 53.9676 49.3738C52.2592 49.3738 52.2592 49.337 50.5507 49.337C48.8422 49.337 48.8422 49.1161 47.1338 49.1161C45.4253 49.1161 45.4253 49.0425 43.7168 49.0425C42.0084 49.0425 42.0084 49.0425 40.2999 49.0425C38.5914 49.0425 38.5914 49.2128 36.8886 49.2128C35.1858 49.2128 35.1801 49.199 33.4774 49.199C31.7746 49.199 31.7689 49.4889 30.0604 49.4889C28.3519 49.4889 28.3519 49.2956 26.6435 49.2956C24.935 49.2956 24.935 49.0655 23.2265 49.0655C21.5181 49.0655 21.5181 49.4843 19.8096 49.4843C18.1011 49.4843 18.1011 49.1621 16.3983 49.1621C14.6955 49.1621 14.6899 49.0747 12.9814 49.0747C11.2729 49.0747 11.2729 49.2312 9.56445 49.2312C7.85598 49.2312 7.85598 49.4567 6.14751 49.4567C4.79663 49.4567 3.62737 48.7802 2.74192 48.0622C1.85647 47.3443 1.24346 46.3962 1.24346 45.3009C1.24346 43.9708 1.12994 43.9708 1.12994 42.6454C1.12994 41.32 1.48185 41.3154 1.48185 39.9899C1.48185 38.6645 1.10724 38.6599 1.10724 37.3344C1.10724 36.009 1.10156 36.009 1.10156 34.679C1.10156 33.3489 1.51591 33.3489 1.51591 32.0235C1.51591 30.698 1.22643 30.6934 1.22643 29.368C1.22643 28.0426 1.12427 28.038 1.12427 26.7125C1.12427 25.3871 1.28319 25.3825 1.28319 24.057C1.28319 22.7316 1.21508 22.727 1.21508 21.397C1.21508 20.0669 1.1867 20.0669 1.1867 18.7415C1.1867 17.416 1.4478 17.4114 1.4478 16.0814C1.4478 14.7514 1.49888 14.7514 1.49888 13.4213C1.49888 12.0913 1.27752 12.0913 1.27752 10.7612" fill="url(#paint0_linear_870_2998)"/>
<path d="M181.734 10.7704C181.734 12.1005 181.825 12.1005 181.825 13.4259C181.825 14.7514 181.944 14.756 181.944 16.0814C181.944 17.4068 181.728 17.4114 181.728 18.7369C181.728 20.0623 181.518 20.0623 181.518 21.3924C181.518 22.7224 181.859 22.7224 181.859 24.0478C181.859 25.3733 181.581 25.3779 181.581 26.7033C181.581 28.0288 181.53 28.0334 181.53 29.3588C181.53 30.6842 181.53 30.6888 181.53 32.0143C181.53 33.3397 181.7 33.3443 181.7 34.6744C181.7 36.0044 181.927 36.0044 181.927 37.3298C181.927 38.6553 181.694 38.6599 181.694 39.9899C181.694 41.32 181.711 41.32 181.711 42.65C181.711 43.98 181.87 43.98 181.87 45.3101C181.87 46.4054 181.172 47.4409 180.287 48.1543C179.401 48.8676 178.124 49.2174 176.779 49.2174C175.07 49.2174 175.07 49.1944 173.368 49.1944C171.665 49.1944 171.659 49.1944 169.956 49.1944C168.254 49.1944 168.248 49.3416 166.545 49.3416C164.842 49.3416 164.837 49.291 163.134 49.291C161.431 49.291 161.425 49.4245 159.723 49.4245C158.02 49.4245 158.014 49.1023 156.311 49.1023C154.608 49.1023 154.603 49.3048 152.9 49.3048C151.197 49.3048 151.192 49.1115 149.489 49.1115C147.786 49.1115 147.78 49.4659 146.077 49.4659C144.375 49.4659 144.369 49.4889 142.666 49.4889C140.963 49.4889 140.958 49.4521 139.255 49.4521C137.552 49.4521 137.546 49.4843 135.844 49.4843C134.141 49.4843 134.135 49.2358 132.432 49.2358C130.73 49.2358 130.724 49.4383 129.021 49.4383C127.318 49.4383 127.313 49.4015 125.61 49.4015C123.907 49.4015 123.901 49.2588 122.199 49.2588C120.496 49.2588 120.49 49.1207 118.787 49.1207C117.085 49.1207 117.085 49.4475 115.376 49.4475C113.668 49.4475 113.673 49.3094 111.965 49.3094C110.256 49.3094 110.262 49.291 108.554 49.291C106.845 49.291 106.845 49.3186 105.142 49.3186C103.439 49.3186 103.439 49.4659 101.731 49.4659C100.023 49.4659 100.028 49.1023 98.3198 49.1023C96.6113 49.1023 96.6113 49.199 94.9085 49.199C93.2057 49.199 93.2 49.1207 91.4972 49.1207C89.7944 49.1207 89.7888 49.2588 88.086 49.2588C86.3832 49.2588 86.3775 49.3554 84.6747 49.3554C82.9719 49.3554 82.9662 49.199 81.2634 49.199C79.5606 49.199 79.555 49.337 77.8522 49.337C76.1494 49.337 76.1437 49.2174 74.4409 49.2174C72.7381 49.2174 72.7324 49.2634 71.0296 49.2634C69.3268 49.2634 69.3212 49.1806 67.6184 49.1806C65.9156 49.1806 65.9099 49.2772 64.2071 49.2772C62.5043 49.2772 62.4986 49.4107 60.7958 49.4107C59.0931 49.4107 59.0874 49.3738 57.3846 49.3738C55.6818 49.3738 55.6761 49.3738 53.9676 49.3738C52.2592 49.3738 52.2592 49.337 50.5507 49.337C48.8422 49.337 48.8422 49.1161 47.1338 49.1161C45.4253 49.1161 45.4253 49.0425 43.7168 49.0425C42.0084 49.0425 42.0084 49.0425 40.2999 49.0425C38.5914 49.0425 38.5914 49.2128 36.8886 49.2128C35.1858 49.2128 35.1801 49.199 33.4774 49.199C31.7746 49.199 31.7689 49.4889 30.0604 49.4889C28.3519 49.4889 28.3519 49.2956 26.6435 49.2956C24.935 49.2956 24.935 49.0655 23.2265 49.0655C21.5181 49.0655 21.5181 49.4843 19.8096 49.4843C18.1011 49.4843 18.1011 49.1621 16.3983 49.1621C14.6955 49.1621 14.6899 49.0747 12.9814 49.0747C11.2729 49.0747 11.2729 49.2312 9.56445 49.2312C7.85598 49.2312 7.85598 49.4567 6.14751 49.4567C4.79663 49.4567 3.62737 48.7802 2.74192 48.0622C1.85647 47.3443 1.24346 46.3962 1.24346 45.3009C1.24346 43.9708 1.12994 43.9708 1.12994 42.6454C1.12994 41.32 1.48185 41.3154 1.48185 39.9899C1.48185 38.6645 1.10724 38.6599 1.10724 37.3344C1.10724 36.009 1.10156 36.009 1.10156 34.679C1.10156 33.3489 1.51591 33.3489 1.51591 32.0235C1.51591 30.698 1.22643 30.6934 1.22643 29.368C1.22643 28.0426 1.12427 28.038 1.12427 26.7125C1.12427 25.3871 1.28319 25.3825 1.28319 24.057C1.28319 22.7316 1.21508 22.727 1.21508 21.397C1.21508 20.0669 1.1867 20.0669 1.1867 18.7415C1.1867 17.416 1.4478 17.4114 1.4478 16.0814C1.4478 14.7514 1.49888 14.7514 1.49888 13.4213C1.49888 12.0913 1.27752 12.0913 1.27752 10.7612" stroke="black" stroke-width="1.38067" stroke-linecap="round" stroke-linejoin="round"/>
<path d="M181.587 39.7277C181.587 40.823 181.065 41.7664 180.185 42.4844C179.305 43.2023 178.136 43.5015 176.785 43.5015C175.077 43.5015 175.077 43.6902 173.374 43.6902C171.671 43.6902 171.665 43.5383 169.963 43.5383C168.26 43.5383 168.254 43.6948 166.551 43.6948C164.849 43.6948 164.843 43.8559 163.14 43.8559C161.437 43.8559 161.432 43.8144 159.729 43.8144C158.026 43.8144 158.02 43.5659 156.318 43.5659C154.615 43.5659 154.609 43.7086 152.906 43.7086C151.203 43.7086 151.198 43.5429 149.495 43.5429C147.792 43.5429 147.787 43.8052 146.084 43.8052C144.381 43.8052 144.375 43.8789 142.672 43.8789C140.97 43.8789 140.964 43.75 139.261 43.75C137.558 43.75 137.553 43.5245 135.85 43.5245C134.147 43.5245 134.141 43.4831 132.439 43.4831C130.736 43.4831 130.73 43.6396 129.027 43.6396C127.325 43.6396 127.319 43.8513 125.616 43.8513C123.913 43.8513 123.908 43.5659 122.205 43.5659C120.502 43.5659 120.496 43.6718 118.794 43.6718C117.091 43.6718 117.091 43.5337 115.382 43.5337C113.674 43.5337 113.68 43.6442 111.971 43.6442C110.263 43.6442 110.268 43.5613 108.56 43.5613C106.851 43.5613 106.851 43.5337 105.149 43.5337C103.446 43.5337 103.446 43.8052 101.737 43.8052C100.029 43.8052 100.035 43.5383 98.326 43.5383C96.6176 43.5383 96.6176 43.842 94.9148 43.842C93.212 43.842 93.2063 43.7132 91.5035 43.7132C89.8007 43.7132 89.795 43.7684 88.0923 43.7684C86.3895 43.7684 86.3838 43.7362 84.681 43.7362C82.9782 43.7362 82.9725 43.773 81.2697 43.773C79.5669 43.773 79.5613 43.5107 77.8585 43.5107C76.1557 43.5107 76.15 43.5659 74.4472 43.5659C72.7444 43.5659 72.7387 43.6488 71.0359 43.6488C69.3331 43.6488 69.3275 43.6902 67.6247 43.6902C65.9219 43.6902 65.9162 43.5061 64.2134 43.5061C62.5106 43.5061 62.5049 43.6948 60.8021 43.6948C59.0993 43.6948 59.0937 43.5383 57.3909 43.5383C55.6881 43.5383 55.6824 43.8467 53.9739 43.8467C52.2655 43.8467 52.2655 43.6211 50.557 43.6211C48.8485 43.6211 48.8485 43.4739 47.1401 43.4739C45.4316 43.4739 45.4316 43.6073 43.7231 43.6073C42.0146 43.6073 42.0146 43.5981 40.3062 43.5981C38.5977 43.5981 38.5977 43.8282 36.8949 43.8282C35.1921 43.8282 35.1864 43.5659 33.4836 43.5659C31.7808 43.5659 31.7752 43.727 30.0667 43.727C28.3582 43.727 28.3582 43.773 26.6498 43.773C24.9413 43.773 24.9413 43.6119 23.2328 43.6119C21.5243 43.6119 21.5243 43.7454 19.8159 43.7454C18.1074 43.7454 18.1074 43.6396 16.4046 43.6396C14.7018 43.6396 14.6961 43.9019 12.9877 43.9019C11.2792 43.9019 11.2792 43.658 9.57073 43.658C7.86226 43.658 7.86226 43.6948 6.15379 43.6948C4.80291 43.6948 3.66204 43.1747 2.77658 42.4568C1.89113 41.7388 1.32921 40.8138 1.32921 39.7185C1.32921 38.3884 1.49949 38.3884 1.49949 37.063C1.49949 35.7375 1.43137 35.7329 1.43137 34.4075C1.43137 33.0821 1.05108 33.0775 1.05108 31.752C1.05108 30.4266 1.10784 30.4266 1.10784 29.0965C1.10784 27.7665 1.19298 27.7665 1.19298 26.4411C1.19298 25.1156 1.22136 25.111 1.22136 23.7856C1.22136 22.4601 1.36894 22.4555 1.36894 21.1301C1.36894 19.8047 1.32921 19.8001 1.32921 18.4746C1.32921 17.1492 1 17.1446 1 15.8145C1 14.4845 1.00568 14.4845 1.00568 13.1591C1.00568 11.8336 1.00568 11.829 1.00568 10.499C1.00568 9.16894 1.52787 9.16894 1.52787 7.8389C1.52787 6.50886 1.17028 6.50886 1.17028 5.17881C1.17028 4.08349 1.94221 3.19986 2.82767 2.48191C3.71312 1.76397 4.80291 1.43721 6.15379 1.43721C7.86226 1.43721 7.86226 1.32216 9.56505 1.32216C11.2678 1.32216 11.2735 1.17949 12.9763 1.17949C14.6791 1.17949 14.6848 1.08744 16.3876 1.08744C18.0904 1.08744 18.0961 1.43261 19.7988 1.43261C21.5016 1.43261 21.5073 1.40039 23.2101 1.40039C24.9129 1.40039 24.9186 1.26233 26.6214 1.26233C28.3242 1.26233 28.3298 1.36358 30.0326 1.36358C31.7354 1.36358 31.7411 1.04602 33.4439 1.04602C35.1467 1.04602 35.1524 1.42801 36.8552 1.42801C38.558 1.42801 38.5636 1.10125 40.2664 1.10125C41.9692 1.10125 41.9749 1.08744 43.6777 1.08744C45.3805 1.08744 45.3862 1.39119 47.089 1.39119C48.7918 1.39119 48.7974 1.39119 50.5002 1.39119C52.203 1.39119 52.2087 1.28074 53.9115 1.28074C55.6143 1.28074 55.62 1.04142 57.3228 1.04142C59.0256 1.04142 59.0312 1.2025 60.734 1.2025C62.4368 1.2025 62.4425 1.31295 64.1453 1.31295C65.8481 1.31295 65.8481 1.12886 67.5566 1.12886C69.265 1.12886 69.2593 1.30835 70.9678 1.30835C72.6763 1.30835 72.6706 1.24852 74.3791 1.24852C76.0876 1.24852 76.0876 1.27153 77.7904 1.27153C79.4931 1.27153 79.4931 1.03222 81.2016 1.03222C82.9101 1.03222 82.9044 1.10125 84.6129 1.10125C86.3214 1.10125 86.3214 1.06443 88.0241 1.06443C89.7269 1.06443 89.7326 1.13807 91.4354 1.13807C93.1382 1.13807 93.1439 1.35897 94.8467 1.35897C96.5495 1.35897 96.5551 1.18869 98.2579 1.18869C99.9607 1.18869 99.9664 1.0046 101.669 1.0046C103.372 1.0046 103.378 1.34056 105.08 1.34056C106.783 1.34056 106.789 1.18869 108.492 1.18869C110.195 1.18869 110.2 1.43261 111.903 1.43261C113.606 1.43261 113.611 1.405 115.314 1.405C117.017 1.405 117.023 1.30835 118.726 1.30835C120.428 1.30835 120.434 1.4188 122.137 1.4188C123.84 1.4188 123.845 1.44642 125.548 1.44642C127.251 1.44642 127.257 1.28534 128.965 1.28534C130.673 1.28534 130.673 1.11966 132.382 1.11966C134.09 1.11966 134.09 1.22551 135.799 1.22551C137.507 1.22551 137.507 1.07824 139.216 1.07824C140.924 1.07824 140.924 1.25312 142.633 1.25312C144.341 1.25312 144.341 1.16568 146.044 1.16568C147.747 1.16568 147.752 1.16568 149.455 1.16568C151.158 1.16568 151.164 1.34977 152.872 1.34977C154.581 1.34977 154.581 1.10585 156.289 1.10585C157.998 1.10585 157.998 1.13346 159.706 1.13346C161.415 1.13346 161.415 1 163.123 1C164.832 1 164.832 1.12426 166.534 1.12426C168.237 1.12426 168.243 1.36358 169.951 1.36358C171.66 1.36358 171.66 1.06443 173.368 1.06443C175.077 1.06443 175.077 1.33596 176.785 1.33596C178.136 1.33596 179.328 1.68573 180.213 2.40368C181.099 3.12162 181.848 4.08809 181.848 5.18342C181.848 6.51346 181.803 6.51346 181.803 7.8389C181.803 9.16434 181.496 9.16894 181.496 10.4944C181.496 11.8198 181.57 11.8244 181.57 13.1499C181.57 14.4753 181.74 14.4753 181.74 15.8053C181.74 17.1354 181.491 17.1354 181.491 18.4608C181.491 19.7863 181.547 19.7909 181.547 21.1163C181.547 22.4417 181.82 22.4463 181.82 23.7718C181.82 25.0972 181.933 25.1018 181.933 26.4273C181.933 27.7527 181.718 27.7573 181.718 29.0873C181.718 30.4174 181.945 30.4174 181.945 31.7428C181.945 33.0683 181.485 33.0729 181.485 34.4029C181.485 35.7329 181.723 35.7329 181.695 37.063C181.666 38.393 181.581 38.393 181.581 39.7231L181.587 39.7277Z" stroke="black" stroke-width="1.38067" stroke-linecap="round" stroke-linejoin="round"/>
<defs>
<linearGradient id="paint0_linear_870_2998" x1="1.10156" y1="10.7612" x2="16.9614" y2="84.8202" gradientUnits="userSpaceOnUse">
<stop stop-color="#A372FF"/>
<stop offset="0.951042" stop-color="#46C9D2"/>
</linearGradient>
</defs>
</svg>
