<svg width="174" height="54" viewBox="0 0 174 54" fill="none" xmlns="http://www.w3.org/2000/svg">
<path d="M173.03 11.4813C173.03 12.9081 173.117 12.9081 173.117 14.3299C173.117 15.7518 173.23 15.7567 173.23 17.1786C173.23 18.6004 173.025 18.6054 173.025 20.0272C173.025 21.4491 172.825 21.4491 172.825 22.8758C172.825 24.3026 173.149 24.3026 173.149 25.7245C173.149 27.1463 172.885 27.1513 172.885 28.5731C172.885 29.995 172.836 29.9999 172.836 31.4217C172.836 32.8436 172.836 32.8485 172.836 34.2704C172.836 35.6922 172.998 35.6972 172.998 37.1239C172.998 38.5507 173.214 38.5507 173.214 39.9726C173.214 41.3944 172.993 41.3994 172.993 42.8262C172.993 44.2529 173.009 44.2529 173.009 45.6797C173.009 47.1065 173.16 47.1065 173.16 48.5333C173.16 49.7083 172.496 50.8191 171.653 51.5843C170.81 52.3496 169.594 52.7248 168.314 52.7248C166.688 52.7248 166.688 52.7001 165.067 52.7001C163.446 52.7001 163.441 52.7001 161.82 52.7001C160.199 52.7001 160.194 52.8581 158.573 52.8581C156.952 52.8581 156.947 52.8038 155.326 52.8038C153.705 52.8038 153.7 52.9469 152.079 52.9469C150.458 52.9469 150.453 52.6014 148.832 52.6014C147.211 52.6014 147.206 52.8186 145.585 52.8186C143.964 52.8186 143.959 52.6112 142.338 52.6112C140.717 52.6112 140.712 52.9914 139.091 52.9914C137.47 52.9914 137.465 53.0161 135.844 53.0161C134.224 53.0161 134.218 52.9766 132.597 52.9766C130.977 52.9766 130.971 53.0111 129.35 53.0111C127.73 53.0111 127.724 52.7445 126.103 52.7445C124.483 52.7445 124.477 52.9618 122.856 52.9618C121.236 52.9618 121.23 52.9223 119.609 52.9223C117.989 52.9223 117.983 52.7692 116.362 52.7692C114.742 52.7692 114.736 52.6211 113.115 52.6211C111.495 52.6211 111.495 52.9716 109.869 52.9716C108.242 52.9716 108.248 52.8235 106.622 52.8235C104.995 52.8235 105.001 52.8038 103.375 52.8038C101.748 52.8038 101.748 52.8334 100.128 52.8334C98.5068 52.8334 98.5068 52.9914 96.8806 52.9914C95.2544 52.9914 95.2598 52.6014 93.6337 52.6014C92.0075 52.6014 92.0075 52.705 90.3867 52.705C88.7659 52.705 88.7605 52.6211 87.1397 52.6211C85.5189 52.6211 85.5135 52.7692 83.8927 52.7692C82.272 52.7692 82.2666 52.8729 80.6458 52.8729C79.025 52.8729 79.0196 52.705 77.3988 52.705C75.778 52.705 75.7726 52.8531 74.1518 52.8531C72.531 52.8531 72.5256 52.7248 70.9048 52.7248C69.2841 52.7248 69.2787 52.7742 67.6579 52.7742C66.0371 52.7742 66.0317 52.6853 64.4109 52.6853C62.7901 52.6853 62.7847 52.789 61.1639 52.789C59.5432 52.789 59.5378 52.9321 57.917 52.9321C56.2962 52.9321 56.2908 52.8926 54.67 52.8926C53.0492 52.8926 53.0438 52.8926 51.4176 52.8926C49.7914 52.8926 49.7914 52.8531 48.1652 52.8531C46.5391 52.8531 46.5391 52.6162 44.9129 52.6162C43.2867 52.6162 43.2867 52.5372 41.6605 52.5372C40.0343 52.5372 40.0343 52.5372 38.4081 52.5372C36.7819 52.5372 36.7819 52.7198 35.1611 52.7198C33.5404 52.7198 33.535 52.705 31.9142 52.705C30.2934 52.705 30.288 53.0161 28.6618 53.0161C27.0356 53.0161 27.0356 52.8087 25.4094 52.8087C23.7832 52.8087 23.7832 52.5619 22.1571 52.5619C20.5309 52.5619 20.5309 53.0111 18.9047 53.0111C17.2785 53.0111 17.2785 52.6655 15.6577 52.6655C14.0369 52.6655 14.0315 52.5717 12.4053 52.5717C10.7791 52.5717 10.7791 52.7396 9.15296 52.7396C7.52677 52.7396 7.52677 52.9815 5.90058 52.9815C4.61476 52.9815 3.50182 52.2558 2.65901 51.4856C1.8162 50.7154 1.23272 49.6984 1.23272 48.5234C1.23272 47.0966 1.12467 47.0966 1.12467 45.6748C1.12467 44.2529 1.45963 44.248 1.45963 42.8262C1.45963 41.4043 1.10306 41.3994 1.10306 39.9775C1.10306 38.5557 1.09766 38.5557 1.09766 37.1289C1.09766 35.7021 1.49205 35.7021 1.49205 34.2803C1.49205 32.8584 1.21651 32.8535 1.21651 31.4316C1.21651 30.0098 1.11927 30.0048 1.11927 28.583C1.11927 27.1611 1.27054 27.1562 1.27054 25.7344C1.27054 24.3125 1.20571 24.3076 1.20571 22.8808C1.20571 21.454 1.1787 21.454 1.1787 20.0321C1.1787 18.6103 1.42722 18.6054 1.42722 17.1786C1.42722 15.7518 1.47584 15.7518 1.47584 14.325C1.47584 12.8982 1.26514 12.8982 1.26514 11.4714" fill="url(#paint0_linear_878_2405)"/>
<path d="M173.03 11.4813C173.03 12.9081 173.117 12.9081 173.117 14.3299C173.117 15.7518 173.23 15.7567 173.23 17.1786C173.23 18.6004 173.025 18.6054 173.025 20.0272C173.025 21.4491 172.825 21.4491 172.825 22.8758C172.825 24.3026 173.149 24.3026 173.149 25.7245C173.149 27.1463 172.885 27.1513 172.885 28.5731C172.885 29.995 172.836 29.9999 172.836 31.4217C172.836 32.8436 172.836 32.8485 172.836 34.2704C172.836 35.6922 172.998 35.6972 172.998 37.1239C172.998 38.5507 173.214 38.5507 173.214 39.9726C173.214 41.3944 172.993 41.3994 172.993 42.8262C172.993 44.2529 173.009 44.2529 173.009 45.6797C173.009 47.1065 173.16 47.1065 173.16 48.5333C173.16 49.7083 172.496 50.8191 171.653 51.5843C170.81 52.3496 169.594 52.7248 168.314 52.7248C166.688 52.7248 166.688 52.7001 165.067 52.7001C163.446 52.7001 163.441 52.7001 161.82 52.7001C160.199 52.7001 160.194 52.8581 158.573 52.8581C156.952 52.8581 156.947 52.8038 155.326 52.8038C153.705 52.8038 153.7 52.9469 152.079 52.9469C150.458 52.9469 150.453 52.6014 148.832 52.6014C147.211 52.6014 147.206 52.8186 145.585 52.8186C143.964 52.8186 143.959 52.6112 142.338 52.6112C140.717 52.6112 140.712 52.9914 139.091 52.9914C137.47 52.9914 137.465 53.0161 135.844 53.0161C134.224 53.0161 134.218 52.9766 132.597 52.9766C130.977 52.9766 130.971 53.0111 129.35 53.0111C127.73 53.0111 127.724 52.7445 126.103 52.7445C124.483 52.7445 124.477 52.9618 122.856 52.9618C121.236 52.9618 121.23 52.9223 119.609 52.9223C117.989 52.9223 117.983 52.7692 116.362 52.7692C114.742 52.7692 114.736 52.6211 113.115 52.6211C111.495 52.6211 111.495 52.9716 109.869 52.9716C108.242 52.9716 108.248 52.8235 106.622 52.8235C104.995 52.8235 105.001 52.8038 103.375 52.8038C101.748 52.8038 101.748 52.8334 100.128 52.8334C98.5068 52.8334 98.5068 52.9914 96.8806 52.9914C95.2544 52.9914 95.2598 52.6014 93.6337 52.6014C92.0075 52.6014 92.0075 52.705 90.3867 52.705C88.7659 52.705 88.7605 52.6211 87.1397 52.6211C85.5189 52.6211 85.5135 52.7692 83.8927 52.7692C82.272 52.7692 82.2666 52.8729 80.6458 52.8729C79.025 52.8729 79.0196 52.705 77.3988 52.705C75.778 52.705 75.7726 52.8531 74.1518 52.8531C72.531 52.8531 72.5256 52.7248 70.9048 52.7248C69.2841 52.7248 69.2787 52.7742 67.6579 52.7742C66.0371 52.7742 66.0317 52.6853 64.4109 52.6853C62.7901 52.6853 62.7847 52.789 61.1639 52.789C59.5432 52.789 59.5377 52.9321 57.917 52.9321C56.2962 52.9321 56.2908 52.8926 54.67 52.8926C53.0492 52.8926 53.0438 52.8926 51.4176 52.8926C49.7914 52.8926 49.7914 52.8531 48.1652 52.8531C46.5391 52.8531 46.5391 52.6162 44.9129 52.6162C43.2867 52.6162 43.2867 52.5372 41.6605 52.5372C40.0343 52.5372 40.0343 52.5372 38.4081 52.5372C36.7819 52.5372 36.7819 52.7198 35.1611 52.7198C33.5404 52.7198 33.535 52.705 31.9142 52.705C30.2934 52.705 30.288 53.0161 28.6618 53.0161C27.0356 53.0161 27.0356 52.8087 25.4094 52.8087C23.7832 52.8087 23.7832 52.5619 22.1571 52.5619C20.5309 52.5619 20.5309 53.0111 18.9047 53.0111C17.2785 53.0111 17.2785 52.6655 15.6577 52.6655C14.0369 52.6655 14.0315 52.5717 12.4053 52.5717C10.7791 52.5717 10.7791 52.7396 9.15296 52.7396C7.52677 52.7396 7.52677 52.9815 5.90058 52.9815C4.61476 52.9815 3.50182 52.2558 2.65901 51.4856C1.8162 50.7154 1.23272 49.6984 1.23272 48.5234C1.23272 47.0966 1.12467 47.0966 1.12467 45.6748C1.12467 44.2529 1.45963 44.248 1.45963 42.8262C1.45963 41.4043 1.10306 41.3994 1.10306 39.9775C1.10306 38.5557 1.09766 38.5557 1.09766 37.1289C1.09766 35.7021 1.49205 35.7021 1.49205 34.2803C1.49205 32.8584 1.21651 32.8535 1.21651 31.4316C1.21651 30.0098 1.11927 30.0048 1.11927 28.583C1.11927 27.1611 1.27054 27.1562 1.27054 25.7343C1.27054 24.3125 1.20571 24.3076 1.20571 22.8808C1.20571 21.454 1.1787 21.454 1.1787 20.0321C1.1787 18.6103 1.42722 18.6054 1.42722 17.1786C1.42722 15.7518 1.47584 15.7518 1.47584 14.325C1.47584 12.8982 1.26514 12.8982 1.26514 11.4714" stroke="black" stroke-width="1.38067" stroke-linecap="round" stroke-linejoin="round"/>
<path d="M172.89 42.5446C172.89 43.7196 172.393 44.7317 171.555 45.5019C170.718 46.272 169.605 46.5929 168.319 46.5929C166.693 46.5929 166.693 46.7954 165.072 46.7954C163.451 46.7954 163.446 46.6324 161.825 46.6324C160.204 46.6324 160.199 46.8003 158.578 46.8003C156.957 46.8003 156.952 46.9731 155.331 46.9731C153.71 46.9731 153.705 46.9287 152.084 46.9287C150.463 46.9287 150.458 46.6621 148.837 46.6621C147.216 46.6621 147.211 46.8151 145.59 46.8151C143.969 46.8151 143.964 46.6374 142.343 46.6374C140.722 46.6374 140.717 46.9188 139.096 46.9188C137.475 46.9188 137.47 46.9978 135.849 46.9978C134.229 46.9978 134.223 46.8595 132.602 46.8595C130.982 46.8595 130.976 46.6176 129.355 46.6176C127.735 46.6176 127.729 46.5732 126.108 46.5732C124.488 46.5732 124.482 46.7411 122.861 46.7411C121.241 46.7411 121.235 46.9682 119.614 46.9682C117.994 46.9682 117.988 46.6621 116.367 46.6621C114.747 46.6621 114.741 46.7756 113.12 46.7756C111.5 46.7756 111.5 46.6275 109.874 46.6275C108.247 46.6275 108.253 46.746 106.627 46.746C105 46.746 105.006 46.6571 103.38 46.6571C101.753 46.6571 101.753 46.6275 100.133 46.6275C98.5118 46.6275 98.5118 46.9188 96.8856 46.9188C95.2594 46.9188 95.2648 46.6324 93.6387 46.6324C92.0125 46.6324 92.0125 46.9583 90.3917 46.9583C88.7709 46.9583 88.7655 46.82 87.1447 46.82C85.5239 46.82 85.5185 46.8793 83.8977 46.8793C82.277 46.8793 82.2716 46.8447 80.6508 46.8447C79.03 46.8447 79.0246 46.8842 77.4038 46.8842C75.783 46.8842 75.7776 46.6028 74.1568 46.6028C72.536 46.6028 72.5306 46.6621 70.9099 46.6621C69.2891 46.6621 69.2837 46.7509 67.6629 46.7509C66.0421 46.7509 66.0367 46.7954 64.4159 46.7954C62.7951 46.7954 62.7897 46.5979 61.1689 46.5979C59.5481 46.5979 59.5427 46.8003 57.922 46.8003C56.3012 46.8003 56.2958 46.6324 54.675 46.6324C53.0542 46.6324 53.0488 46.9632 51.4226 46.9632C49.7964 46.9632 49.7964 46.7213 48.1702 46.7213C46.544 46.7213 46.5441 46.5633 44.9179 46.5633C43.2917 46.5633 43.2917 46.7065 41.6655 46.7065C40.0393 46.7065 40.0393 46.6966 38.4131 46.6966C36.7869 46.6966 36.7869 46.9435 35.1661 46.9435C33.5454 46.9435 33.54 46.6621 31.9192 46.6621C30.2984 46.6621 30.293 46.8349 28.6668 46.8349C27.0406 46.8349 27.0406 46.8842 25.4144 46.8842C23.7882 46.8842 23.7882 46.7114 22.162 46.7114C20.5359 46.7114 20.5359 46.8546 18.9097 46.8546C17.2835 46.8546 17.2835 46.7411 15.6627 46.7411C14.0419 46.7411 14.0365 47.0225 12.4103 47.0225C10.7841 47.0225 10.7841 46.7608 9.15795 46.7608C7.53176 46.7608 7.53176 46.8003 5.90557 46.8003C4.61975 46.8003 3.53383 46.2424 2.69102 45.4723C1.84821 44.7021 1.31335 43.7098 1.31335 42.5348C1.31335 41.108 1.47543 41.108 1.47543 39.6861C1.47543 38.2643 1.4106 38.2593 1.4106 36.8375C1.4106 35.4156 1.04862 35.4107 1.04862 33.9889C1.04862 32.567 1.10265 32.567 1.10265 31.1402C1.10265 29.7134 1.18369 29.7134 1.18369 28.2916C1.18369 26.8697 1.2107 26.8648 1.2107 25.443C1.2107 24.0211 1.35117 24.0162 1.35117 22.5943C1.35117 21.1725 1.31335 21.1675 1.31335 19.7457C1.31335 18.3238 1 18.3189 1 16.8921C1 15.4653 1.0054 15.4653 1.0054 14.0435C1.0054 12.6216 1.0054 12.6167 1.0054 11.1899C1.0054 9.76313 1.50244 9.76313 1.50244 8.33634C1.50244 6.90956 1.16208 6.90956 1.16208 5.48277C1.16208 4.30777 1.89683 3.35987 2.73964 2.58971C3.58245 1.81954 4.61975 1.46901 5.90557 1.46901C7.53176 1.46901 7.53176 1.34559 9.15255 1.34559C10.7733 1.34559 10.7787 1.19254 12.3995 1.19254C14.0203 1.19254 14.0257 1.0938 15.6465 1.0938C17.2673 1.0938 17.2727 1.46408 18.8935 1.46408C20.5142 1.46408 20.5196 1.42952 22.1404 1.42952C23.7612 1.42952 23.7666 1.28141 25.3874 1.28141C27.0082 1.28141 27.0136 1.39002 28.6344 1.39002C30.2552 1.39002 30.2606 1.04937 31.8814 1.04937C33.5021 1.04937 33.5075 1.45914 35.1283 1.45914C36.7491 1.45914 36.7545 1.10861 38.3753 1.10861C39.9961 1.10861 40.0015 1.0938 41.6223 1.0938C43.2431 1.0938 43.2485 1.41964 44.8692 1.41964C46.49 1.41964 46.4954 1.41964 48.1162 1.41964C49.737 1.41964 49.7424 1.30116 51.3632 1.30116C52.984 1.30116 52.9894 1.04443 54.6102 1.04443C56.2309 1.04443 56.2363 1.21723 57.8571 1.21723C59.4779 1.21723 59.4833 1.33571 61.1041 1.33571C62.7249 1.33571 62.7249 1.13824 64.3511 1.13824C65.9773 1.13824 65.9719 1.33078 67.598 1.33078C69.2242 1.33078 69.2188 1.2666 70.845 1.2666C72.4712 1.2666 72.4712 1.29128 74.092 1.29128C75.7128 1.29128 75.7128 1.03456 77.339 1.03456C78.9651 1.03456 78.9598 1.10861 80.5859 1.10861C82.2121 1.10861 82.2121 1.06912 83.8329 1.06912C85.4537 1.06912 85.4591 1.14811 87.0799 1.14811C88.7007 1.14811 88.7061 1.38508 90.3269 1.38508C91.9476 1.38508 91.953 1.20242 93.5738 1.20242C95.1946 1.20242 95.2 1.00494 96.8208 1.00494C98.4416 1.00494 98.447 1.36534 100.068 1.36534C101.689 1.36534 101.694 1.20242 103.315 1.20242C104.936 1.20242 104.941 1.46408 106.562 1.46408C108.182 1.46408 108.188 1.43445 109.809 1.43445C111.429 1.43445 111.435 1.33078 113.056 1.33078C114.676 1.33078 114.682 1.44926 116.303 1.44926C117.923 1.44926 117.929 1.47889 119.55 1.47889C121.17 1.47889 121.176 1.30609 122.802 1.30609C124.428 1.30609 124.428 1.12836 126.054 1.12836C127.681 1.12836 127.681 1.24191 129.307 1.24191C130.933 1.24191 130.933 1.08393 132.559 1.08393C134.185 1.08393 134.185 1.27153 135.811 1.27153C137.438 1.27153 137.438 1.17773 139.058 1.17773C140.679 1.17773 140.685 1.17773 142.305 1.17773C143.926 1.17773 143.932 1.37521 145.558 1.37521C147.184 1.37521 147.184 1.11355 148.81 1.11355C150.436 1.11355 150.436 1.14317 152.063 1.14317C153.689 1.14317 153.689 1 155.315 1C156.941 1 156.941 1.1333 158.562 1.1333C160.183 1.1333 160.188 1.39002 161.814 1.39002C163.44 1.39002 163.44 1.06912 165.067 1.06912C166.693 1.06912 166.693 1.3604 168.319 1.3604C169.605 1.3604 170.739 1.73561 171.582 2.50578C172.425 3.27594 173.138 4.31271 173.138 5.48771C173.138 6.91449 173.095 6.91449 173.095 8.33634C173.095 9.75819 172.803 9.76313 172.803 11.185C172.803 12.6068 172.873 12.6118 172.873 14.0336C172.873 15.4555 173.035 15.4555 173.035 16.8822C173.035 18.309 172.798 18.309 172.798 19.7309C172.798 21.1527 172.852 21.1577 172.852 22.5795C172.852 24.0014 173.111 24.0063 173.111 25.4281C173.111 26.85 173.219 26.8549 173.219 28.2768C173.219 29.6986 173.014 29.7036 173.014 31.1303C173.014 32.5571 173.23 32.5571 173.23 33.979C173.23 35.4008 172.792 35.4058 172.792 36.8325C172.792 38.2593 173.019 38.2593 172.992 39.6861C172.965 41.1129 172.884 41.1129 172.884 42.5397L172.89 42.5446Z" stroke="black" stroke-width="1.38067" stroke-linecap="round" stroke-linejoin="round"/>
<defs>
<linearGradient id="paint0_linear_878_2405" x1="1.09766" y1="11.4714" x2="20.0476" y2="89.9871" gradientUnits="userSpaceOnUse">
<stop stop-color="#A372FF"/>
<stop offset="0.951042" stop-color="#46C9D2"/>
</linearGradient>
</defs>
</svg>
