<svg width="116" height="101" viewBox="0 0 116 101" fill="none" xmlns="http://www.w3.org/2000/svg">
<g style="mix-blend-mode:overlay">
<path d="M13.1593 71.3835L14.1346 59.8199L25.6983 58.8446L14.1346 57.8693L13.1593 46.3056L12.184 57.8693L0.620361 58.8446L12.184 59.8199L13.1593 71.3835Z" fill="white"/>
</g>
<g style="mix-blend-mode:overlay">
<path d="M49.5127 18.3481L50.2159 10.0105L58.5536 9.30724L50.2159 8.60402L49.5127 0.266331L48.8095 8.60402L40.4718 9.30724L48.8095 10.0105L49.5127 18.3481Z" fill="white"/>
</g>
<g style="mix-blend-mode:overlay">
<path d="M76.5945 77.7806L77.8186 63.2672L92.3321 62.0431L77.8186 60.819L76.5945 46.3055L75.3704 60.819L60.8569 62.0431L75.3704 63.2672L76.5945 77.7806Z" fill="white"/>
</g>
<g style="mix-blend-mode:overlay">
<path d="M110.213 18.3481L110.631 13.3905L115.588 12.9724L110.631 12.5543L110.213 7.59668L109.795 12.5543L104.837 12.9724L109.795 13.3905L110.213 18.3481Z" fill="white"/>
</g>
<g style="mix-blend-mode:overlay">
<path d="M55.4812 100.73L55.8993 95.7721L60.8569 95.354L55.8993 94.9359L55.4812 89.9783L55.0631 94.9359L50.1055 95.354L55.0631 95.7721L55.4812 100.73Z" fill="white"/>
</g>
</svg>
