<svg width="181" height="123" viewBox="0 0 181 123" fill="none" xmlns="http://www.w3.org/2000/svg">
<g style="mix-blend-mode:overlay">
<path d="M126.064 0.847534L125.088 12.4112L113.525 13.3865L125.088 14.3618L126.064 25.9255L127.039 14.3618L138.603 13.3865L127.039 12.4112L126.064 0.847534Z" fill="white"/>
</g>
<g style="mix-blend-mode:overlay">
<path d="M47.2587 34.046L46.5554 42.3837L38.2177 43.0869L46.5554 43.7901L47.2587 52.1278L47.9619 43.7901L56.2996 43.0869L47.9619 42.3837L47.2587 34.046Z" fill="white"/>
</g>
<g style="mix-blend-mode:overlay">
<path d="M43.5935 90.6964L42.3694 105.21L27.8559 106.434L42.3694 107.658L43.5935 122.172L44.8176 107.658L59.3311 106.434L44.8176 105.21L43.5935 90.6964Z" fill="white"/>
</g>
<g style="mix-blend-mode:overlay">
<path d="M38.2178 8.01074L37.7996 12.9683L32.842 13.3865L37.7996 13.8046L38.2178 18.7622L38.6359 13.8046L43.5935 13.3865L38.6359 12.9683L38.2178 8.01074Z" fill="white"/>
</g>
<g style="mix-blend-mode:overlay">
<path d="M5.43579 67.6632L5.01766 72.6208L0.0600624 73.0389L5.01766 73.4571L5.43579 78.4147L5.85393 73.4571L10.8115 73.0389L5.85393 72.6208L5.43579 67.6632Z" fill="white"/>
</g>
<g style="mix-blend-mode:overlay">
<path d="M175.434 20.5498L175.016 25.5074L170.059 25.9255L175.016 26.3437L175.434 31.3013L175.852 26.3437L180.81 25.9255L175.852 25.5074L175.434 20.5498Z" fill="white"/>
</g>
</svg>
