<svg width="183" height="51" viewBox="0 0 183 51" fill="none" xmlns="http://www.w3.org/2000/svg">
<path d="M181.734 10.7706C181.734 12.1006 181.825 12.1006 181.825 13.426C181.825 14.7515 181.944 14.7561 181.944 16.0815C181.944 17.407 181.729 17.4116 181.729 18.737C181.729 20.0624 181.519 20.0624 181.519 21.3925C181.519 22.7225 181.859 22.7225 181.859 24.048C181.859 25.3734 181.581 25.378 181.581 26.7034C181.581 28.0289 181.53 28.0335 181.53 29.3589C181.53 30.6844 181.53 30.689 181.53 32.0144C181.53 33.3398 181.7 33.3444 181.7 34.6745C181.7 36.0045 181.927 36.0045 181.927 37.33C181.927 38.6554 181.695 38.66 181.695 39.99C181.695 41.3201 181.712 41.3201 181.712 42.6501C181.712 43.9802 181.871 43.9802 181.871 45.3102C181.871 46.4055 181.173 47.441 180.287 48.1544C179.402 48.8677 178.125 49.2175 176.779 49.2175C175.071 49.2175 175.071 49.1945 173.368 49.1945C171.665 49.1945 171.66 49.1945 169.957 49.1945C168.254 49.1945 168.248 49.3418 166.546 49.3418C164.843 49.3418 164.837 49.2911 163.134 49.2911C161.431 49.2911 161.426 49.4246 159.723 49.4246C158.02 49.4246 158.015 49.1024 156.312 49.1024C154.609 49.1024 154.603 49.3049 152.9 49.3049C151.198 49.3049 151.192 49.1116 149.489 49.1116C147.786 49.1116 147.781 49.466 146.078 49.466C144.375 49.466 144.369 49.489 142.667 49.489C140.964 49.489 140.958 49.4522 139.255 49.4522C137.553 49.4522 137.547 49.4844 135.844 49.4844C134.141 49.4844 134.136 49.2359 132.433 49.2359C130.73 49.2359 130.724 49.4384 129.022 49.4384C127.319 49.4384 127.313 49.4016 125.61 49.4016C123.908 49.4016 123.902 49.2589 122.199 49.2589C120.496 49.2589 120.491 49.1208 118.788 49.1208C117.085 49.1208 117.085 49.4476 115.377 49.4476C113.668 49.4476 113.674 49.3095 111.965 49.3095C110.257 49.3095 110.263 49.2911 108.554 49.2911C106.846 49.2911 106.846 49.3187 105.143 49.3187C103.44 49.3187 103.44 49.466 101.732 49.466C100.023 49.466 100.029 49.1024 98.3202 49.1024C96.6118 49.1024 96.6118 49.1991 94.909 49.1991C93.2062 49.1991 93.2005 49.1208 91.4977 49.1208C89.7949 49.1208 89.7892 49.2589 88.0865 49.2589C86.3837 49.2589 86.378 49.3556 84.6752 49.3556C82.9724 49.3556 82.9667 49.1991 81.2639 49.1991C79.5611 49.1991 79.5555 49.3371 77.8527 49.3371C76.1499 49.3371 76.1442 49.2175 74.4414 49.2175C72.7386 49.2175 72.7329 49.2635 71.0301 49.2635C69.3273 49.2635 69.3217 49.1807 67.6189 49.1807C65.9161 49.1807 65.9104 49.2773 64.2076 49.2773C62.5048 49.2773 62.4991 49.4108 60.7963 49.4108C59.0935 49.4108 59.0879 49.374 57.3851 49.374C55.6823 49.374 55.6766 49.374 53.9681 49.374C52.2597 49.374 52.2597 49.3371 50.5512 49.3371C48.8427 49.3371 48.8427 49.1162 47.1343 49.1162C45.4258 49.1162 45.4258 49.0426 43.7173 49.0426C42.0088 49.0426 42.0088 49.0426 40.3004 49.0426C38.5919 49.0426 38.5919 49.2129 36.8891 49.2129C35.1863 49.2129 35.1806 49.1991 33.4778 49.1991C31.775 49.1991 31.7694 49.489 30.0609 49.489C28.3524 49.489 28.3524 49.2957 26.644 49.2957C24.9355 49.2957 24.9355 49.0656 23.227 49.0656C21.5186 49.0656 21.5186 49.4844 19.8101 49.4844C18.1016 49.4844 18.1016 49.1623 16.3988 49.1623C14.696 49.1623 14.6903 49.0748 12.9819 49.0748C11.2734 49.0748 11.2734 49.2313 9.56494 49.2313C7.85647 49.2313 7.85647 49.4568 6.148 49.4568C4.79711 49.4568 3.62786 48.7803 2.74241 48.0623C1.85696 47.3444 1.24395 46.3963 1.24395 45.301C1.24395 43.971 1.13043 43.971 1.13043 42.6455C1.13043 41.3201 1.48234 41.3155 1.48234 39.99C1.48234 38.6646 1.10773 38.66 1.10773 37.3346C1.10773 36.0091 1.10205 36.0091 1.10205 34.6791C1.10205 33.349 1.5164 33.349 1.5164 32.0236C1.5164 30.6982 1.22692 30.6936 1.22692 29.3681C1.22692 28.0427 1.12475 28.0381 1.12475 26.7126C1.12475 25.3872 1.28368 25.3826 1.28368 24.0572C1.28368 22.7317 1.21557 22.7271 1.21557 21.3971C1.21557 20.067 1.18719 20.067 1.18719 18.7416C1.18719 17.4162 1.44829 17.4116 1.44829 16.0815C1.44829 14.7515 1.49937 14.7515 1.49937 13.4214C1.49937 12.0914 1.27801 12.0914 1.27801 10.7614" fill="black"/>
<path d="M181.734 10.7706C181.734 12.1006 181.825 12.1006 181.825 13.426C181.825 14.7515 181.944 14.7561 181.944 16.0815C181.944 17.407 181.729 17.4116 181.729 18.737C181.729 20.0624 181.519 20.0624 181.519 21.3925C181.519 22.7225 181.859 22.7225 181.859 24.048C181.859 25.3734 181.581 25.378 181.581 26.7034C181.581 28.0289 181.53 28.0335 181.53 29.3589C181.53 30.6844 181.53 30.689 181.53 32.0144C181.53 33.3398 181.7 33.3444 181.7 34.6745C181.7 36.0045 181.927 36.0045 181.927 37.33C181.927 38.6554 181.695 38.66 181.695 39.99C181.695 41.3201 181.712 41.3201 181.712 42.6501C181.712 43.9802 181.871 43.9802 181.871 45.3102C181.871 46.4055 181.173 47.441 180.287 48.1544C179.402 48.8677 178.125 49.2175 176.779 49.2175C175.071 49.2175 175.071 49.1945 173.368 49.1945C171.665 49.1945 171.66 49.1945 169.957 49.1945C168.254 49.1945 168.248 49.3418 166.546 49.3418C164.843 49.3418 164.837 49.2911 163.134 49.2911C161.431 49.2911 161.426 49.4246 159.723 49.4246C158.02 49.4246 158.015 49.1024 156.312 49.1024C154.609 49.1024 154.603 49.3049 152.9 49.3049C151.198 49.3049 151.192 49.1116 149.489 49.1116C147.786 49.1116 147.781 49.466 146.078 49.466C144.375 49.466 144.369 49.489 142.667 49.489C140.964 49.489 140.958 49.4522 139.255 49.4522C137.553 49.4522 137.547 49.4844 135.844 49.4844C134.141 49.4844 134.136 49.2359 132.433 49.2359C130.73 49.2359 130.724 49.4384 129.022 49.4384C127.319 49.4384 127.313 49.4016 125.61 49.4016C123.908 49.4016 123.902 49.2589 122.199 49.2589C120.496 49.2589 120.491 49.1208 118.788 49.1208C117.085 49.1208 117.085 49.4476 115.377 49.4476C113.668 49.4476 113.674 49.3095 111.965 49.3095C110.257 49.3095 110.263 49.2911 108.554 49.2911C106.846 49.2911 106.846 49.3187 105.143 49.3187C103.44 49.3187 103.44 49.466 101.732 49.466C100.023 49.466 100.029 49.1024 98.3202 49.1024C96.6118 49.1024 96.6118 49.1991 94.909 49.1991C93.2062 49.1991 93.2005 49.1208 91.4977 49.1208C89.7949 49.1208 89.7892 49.2589 88.0865 49.2589C86.3837 49.2589 86.378 49.3556 84.6752 49.3556C82.9724 49.3556 82.9667 49.1991 81.2639 49.1991C79.5611 49.1991 79.5555 49.3371 77.8527 49.3371C76.1499 49.3371 76.1442 49.2175 74.4414 49.2175C72.7386 49.2175 72.7329 49.2635 71.0301 49.2635C69.3273 49.2635 69.3217 49.1807 67.6189 49.1807C65.9161 49.1807 65.9104 49.2773 64.2076 49.2773C62.5048 49.2773 62.4991 49.4108 60.7963 49.4108C59.0935 49.4108 59.0879 49.374 57.3851 49.374C55.6823 49.374 55.6766 49.374 53.9681 49.374C52.2597 49.374 52.2597 49.3371 50.5512 49.3371C48.8427 49.3371 48.8427 49.1162 47.1343 49.1162C45.4258 49.1162 45.4258 49.0426 43.7173 49.0426C42.0088 49.0426 42.0088 49.0426 40.3004 49.0426C38.5919 49.0426 38.5919 49.2129 36.8891 49.2129C35.1863 49.2129 35.1806 49.1991 33.4778 49.1991C31.775 49.1991 31.7694 49.489 30.0609 49.489C28.3524 49.489 28.3524 49.2957 26.644 49.2957C24.9355 49.2957 24.9355 49.0656 23.227 49.0656C21.5186 49.0656 21.5186 49.4844 19.8101 49.4844C18.1016 49.4844 18.1016 49.1623 16.3988 49.1623C14.696 49.1623 14.6903 49.0748 12.9819 49.0748C11.2734 49.0748 11.2734 49.2313 9.56494 49.2313C7.85647 49.2313 7.85647 49.4568 6.148 49.4568C4.79711 49.4568 3.62786 48.7803 2.74241 48.0623C1.85696 47.3444 1.24395 46.3963 1.24395 45.301C1.24395 43.971 1.13043 43.971 1.13043 42.6455C1.13043 41.3201 1.48234 41.3155 1.48234 39.99C1.48234 38.6646 1.10773 38.66 1.10773 37.3346C1.10773 36.0091 1.10205 36.0091 1.10205 34.6791C1.10205 33.349 1.5164 33.349 1.5164 32.0236C1.5164 30.6982 1.22692 30.6936 1.22692 29.3681C1.22692 28.0427 1.12475 28.0381 1.12475 26.7126C1.12475 25.3872 1.28368 25.3826 1.28368 24.0572C1.28368 22.7317 1.21557 22.7271 1.21557 21.3971C1.21557 20.067 1.18719 20.067 1.18719 18.7416C1.18719 17.4162 1.44829 17.4116 1.44829 16.0815C1.44829 14.7515 1.49937 14.7515 1.49937 13.4214C1.49937 12.0914 1.27801 12.0914 1.27801 10.7614" stroke="black" stroke-width="1.38067" stroke-linecap="round" stroke-linejoin="round"/>
<path d="M181.587 39.7277C181.587 40.823 181.065 41.7664 180.185 42.4844C179.305 43.2023 178.136 43.5015 176.785 43.5015C175.077 43.5015 175.077 43.6902 173.374 43.6902C171.671 43.6902 171.665 43.5383 169.963 43.5383C168.26 43.5383 168.254 43.6948 166.551 43.6948C164.849 43.6948 164.843 43.8559 163.14 43.8559C161.437 43.8559 161.432 43.8144 159.729 43.8144C158.026 43.8144 158.02 43.5659 156.318 43.5659C154.615 43.5659 154.609 43.7086 152.906 43.7086C151.203 43.7086 151.198 43.5429 149.495 43.5429C147.792 43.5429 147.787 43.8052 146.084 43.8052C144.381 43.8052 144.375 43.8789 142.672 43.8789C140.97 43.8789 140.964 43.75 139.261 43.75C137.558 43.75 137.553 43.5245 135.85 43.5245C134.147 43.5245 134.141 43.4831 132.439 43.4831C130.736 43.4831 130.73 43.6396 129.027 43.6396C127.325 43.6396 127.319 43.8513 125.616 43.8513C123.913 43.8513 123.908 43.5659 122.205 43.5659C120.502 43.5659 120.496 43.6718 118.794 43.6718C117.091 43.6718 117.091 43.5337 115.382 43.5337C113.674 43.5337 113.68 43.6442 111.971 43.6442C110.263 43.6442 110.268 43.5613 108.56 43.5613C106.851 43.5613 106.851 43.5337 105.149 43.5337C103.446 43.5337 103.446 43.8052 101.737 43.8052C100.029 43.8052 100.035 43.5383 98.326 43.5383C96.6176 43.5383 96.6176 43.842 94.9148 43.842C93.212 43.842 93.2063 43.7132 91.5035 43.7132C89.8007 43.7132 89.795 43.7684 88.0923 43.7684C86.3895 43.7684 86.3838 43.7362 84.681 43.7362C82.9782 43.7362 82.9725 43.773 81.2697 43.773C79.5669 43.773 79.5613 43.5107 77.8585 43.5107C76.1557 43.5107 76.15 43.5659 74.4472 43.5659C72.7444 43.5659 72.7387 43.6488 71.0359 43.6488C69.3331 43.6488 69.3275 43.6902 67.6247 43.6902C65.9219 43.6902 65.9162 43.5061 64.2134 43.5061C62.5106 43.5061 62.5049 43.6948 60.8021 43.6948C59.0993 43.6948 59.0937 43.5383 57.3909 43.5383C55.6881 43.5383 55.6824 43.8467 53.9739 43.8467C52.2655 43.8467 52.2655 43.6211 50.557 43.6211C48.8485 43.6211 48.8485 43.4739 47.1401 43.4739C45.4316 43.4739 45.4316 43.6073 43.7231 43.6073C42.0146 43.6073 42.0146 43.5981 40.3062 43.5981C38.5977 43.5981 38.5977 43.8282 36.8949 43.8282C35.1921 43.8282 35.1864 43.5659 33.4836 43.5659C31.7808 43.5659 31.7752 43.727 30.0667 43.727C28.3582 43.727 28.3582 43.773 26.6498 43.773C24.9413 43.773 24.9413 43.6119 23.2328 43.6119C21.5243 43.6119 21.5243 43.7454 19.8159 43.7454C18.1074 43.7454 18.1074 43.6396 16.4046 43.6396C14.7018 43.6396 14.6961 43.9019 12.9877 43.9019C11.2792 43.9019 11.2792 43.658 9.57073 43.658C7.86226 43.658 7.86226 43.6948 6.15379 43.6948C4.80291 43.6948 3.66204 43.1747 2.77658 42.4568C1.89113 41.7388 1.32921 40.8138 1.32921 39.7185C1.32921 38.3884 1.49949 38.3884 1.49949 37.063C1.49949 35.7375 1.43137 35.7329 1.43137 34.4075C1.43137 33.0821 1.05108 33.0775 1.05108 31.752C1.05108 30.4266 1.10784 30.4266 1.10784 29.0965C1.10784 27.7665 1.19298 27.7665 1.19298 26.4411C1.19298 25.1156 1.22136 25.111 1.22136 23.7856C1.22136 22.4601 1.36894 22.4555 1.36894 21.1301C1.36894 19.8047 1.32921 19.8001 1.32921 18.4746C1.32921 17.1492 1 17.1446 1 15.8145C1 14.4845 1.00568 14.4845 1.00568 13.1591C1.00568 11.8336 1.00568 11.829 1.00568 10.499C1.00568 9.16894 1.52787 9.16894 1.52787 7.8389C1.52787 6.50886 1.17028 6.50886 1.17028 5.17881C1.17028 4.08349 1.94221 3.19986 2.82767 2.48191C3.71312 1.76397 4.80291 1.43721 6.15379 1.43721C7.86226 1.43721 7.86226 1.32216 9.56505 1.32216C11.2678 1.32216 11.2735 1.17949 12.9763 1.17949C14.6791 1.17949 14.6848 1.08744 16.3876 1.08744C18.0904 1.08744 18.0961 1.43261 19.7988 1.43261C21.5016 1.43261 21.5073 1.40039 23.2101 1.40039C24.9129 1.40039 24.9186 1.26233 26.6214 1.26233C28.3242 1.26233 28.3298 1.36358 30.0326 1.36358C31.7354 1.36358 31.7411 1.04602 33.4439 1.04602C35.1467 1.04602 35.1524 1.42801 36.8552 1.42801C38.558 1.42801 38.5636 1.10125 40.2664 1.10125C41.9692 1.10125 41.9749 1.08744 43.6777 1.08744C45.3805 1.08744 45.3862 1.39119 47.089 1.39119C48.7918 1.39119 48.7974 1.39119 50.5002 1.39119C52.203 1.39119 52.2087 1.28074 53.9115 1.28074C55.6143 1.28074 55.62 1.04142 57.3228 1.04142C59.0256 1.04142 59.0312 1.2025 60.734 1.2025C62.4368 1.2025 62.4425 1.31295 64.1453 1.31295C65.8481 1.31295 65.8481 1.12886 67.5566 1.12886C69.265 1.12886 69.2593 1.30835 70.9678 1.30835C72.6763 1.30835 72.6706 1.24852 74.3791 1.24852C76.0876 1.24852 76.0876 1.27153 77.7904 1.27153C79.4931 1.27153 79.4931 1.03222 81.2016 1.03222C82.9101 1.03222 82.9044 1.10125 84.6129 1.10125C86.3214 1.10125 86.3214 1.06443 88.0241 1.06443C89.7269 1.06443 89.7326 1.13807 91.4354 1.13807C93.1382 1.13807 93.1439 1.35897 94.8467 1.35897C96.5495 1.35897 96.5551 1.18869 98.2579 1.18869C99.9607 1.18869 99.9664 1.0046 101.669 1.0046C103.372 1.0046 103.378 1.34056 105.08 1.34056C106.783 1.34056 106.789 1.18869 108.492 1.18869C110.195 1.18869 110.2 1.43261 111.903 1.43261C113.606 1.43261 113.611 1.405 115.314 1.405C117.017 1.405 117.023 1.30835 118.726 1.30835C120.428 1.30835 120.434 1.4188 122.137 1.4188C123.84 1.4188 123.845 1.44642 125.548 1.44642C127.251 1.44642 127.257 1.28534 128.965 1.28534C130.673 1.28534 130.673 1.11966 132.382 1.11966C134.09 1.11966 134.09 1.22551 135.799 1.22551C137.507 1.22551 137.507 1.07824 139.216 1.07824C140.924 1.07824 140.924 1.25312 142.633 1.25312C144.341 1.25312 144.341 1.16568 146.044 1.16568C147.747 1.16568 147.752 1.16568 149.455 1.16568C151.158 1.16568 151.164 1.34977 152.872 1.34977C154.581 1.34977 154.581 1.10585 156.289 1.10585C157.998 1.10585 157.998 1.13346 159.706 1.13346C161.415 1.13346 161.415 1 163.123 1C164.832 1 164.832 1.12426 166.534 1.12426C168.237 1.12426 168.243 1.36358 169.951 1.36358C171.66 1.36358 171.66 1.06443 173.368 1.06443C175.077 1.06443 175.077 1.33596 176.785 1.33596C178.136 1.33596 179.328 1.68573 180.213 2.40368C181.099 3.12162 181.848 4.08809 181.848 5.18342C181.848 6.51346 181.803 6.51346 181.803 7.8389C181.803 9.16434 181.496 9.16894 181.496 10.4944C181.496 11.8198 181.57 11.8244 181.57 13.1499C181.57 14.4753 181.74 14.4753 181.74 15.8053C181.74 17.1354 181.491 17.1354 181.491 18.4608C181.491 19.7863 181.547 19.7909 181.547 21.1163C181.547 22.4417 181.82 22.4463 181.82 23.7718C181.82 25.0972 181.933 25.1018 181.933 26.4273C181.933 27.7527 181.718 27.7573 181.718 29.0873C181.718 30.4174 181.945 30.4174 181.945 31.7428C181.945 33.0683 181.485 33.0729 181.485 34.4029C181.485 35.7329 181.723 35.7329 181.695 37.063C181.666 38.393 181.581 38.393 181.581 39.7231L181.587 39.7277Z" fill="white"/>
<path d="M181.587 39.7277C181.587 40.823 181.065 41.7664 180.185 42.4844C179.305 43.2023 178.136 43.5015 176.785 43.5015C175.077 43.5015 175.077 43.6902 173.374 43.6902C171.671 43.6902 171.665 43.5383 169.963 43.5383C168.26 43.5383 168.254 43.6948 166.551 43.6948C164.849 43.6948 164.843 43.8559 163.14 43.8559C161.437 43.8559 161.432 43.8144 159.729 43.8144C158.026 43.8144 158.02 43.5659 156.318 43.5659C154.615 43.5659 154.609 43.7086 152.906 43.7086C151.203 43.7086 151.198 43.5429 149.495 43.5429C147.792 43.5429 147.787 43.8052 146.084 43.8052C144.381 43.8052 144.375 43.8789 142.672 43.8789C140.97 43.8789 140.964 43.75 139.261 43.75C137.558 43.75 137.553 43.5245 135.85 43.5245C134.147 43.5245 134.141 43.4831 132.439 43.4831C130.736 43.4831 130.73 43.6396 129.027 43.6396C127.325 43.6396 127.319 43.8513 125.616 43.8513C123.913 43.8513 123.908 43.5659 122.205 43.5659C120.502 43.5659 120.496 43.6718 118.794 43.6718C117.091 43.6718 117.091 43.5337 115.382 43.5337C113.674 43.5337 113.68 43.6442 111.971 43.6442C110.263 43.6442 110.268 43.5613 108.56 43.5613C106.851 43.5613 106.851 43.5337 105.149 43.5337C103.446 43.5337 103.446 43.8052 101.737 43.8052C100.029 43.8052 100.035 43.5383 98.326 43.5383C96.6176 43.5383 96.6176 43.842 94.9148 43.842C93.212 43.842 93.2063 43.7132 91.5035 43.7132C89.8007 43.7132 89.795 43.7684 88.0923 43.7684C86.3895 43.7684 86.3838 43.7362 84.681 43.7362C82.9782 43.7362 82.9725 43.773 81.2697 43.773C79.5669 43.773 79.5613 43.5107 77.8585 43.5107C76.1557 43.5107 76.15 43.5659 74.4472 43.5659C72.7444 43.5659 72.7387 43.6488 71.0359 43.6488C69.3331 43.6488 69.3275 43.6902 67.6247 43.6902C65.9219 43.6902 65.9162 43.5061 64.2134 43.5061C62.5106 43.5061 62.5049 43.6948 60.8021 43.6948C59.0993 43.6948 59.0937 43.5383 57.3909 43.5383C55.6881 43.5383 55.6824 43.8467 53.9739 43.8467C52.2655 43.8467 52.2655 43.6211 50.557 43.6211C48.8485 43.6211 48.8485 43.4739 47.1401 43.4739C45.4316 43.4739 45.4316 43.6073 43.7231 43.6073C42.0146 43.6073 42.0146 43.5981 40.3062 43.5981C38.5977 43.5981 38.5977 43.8282 36.8949 43.8282C35.1921 43.8282 35.1864 43.5659 33.4836 43.5659C31.7808 43.5659 31.7752 43.727 30.0667 43.727C28.3582 43.727 28.3582 43.773 26.6498 43.773C24.9413 43.773 24.9413 43.6119 23.2328 43.6119C21.5243 43.6119 21.5243 43.7454 19.8159 43.7454C18.1074 43.7454 18.1074 43.6396 16.4046 43.6396C14.7018 43.6396 14.6961 43.9019 12.9877 43.9019C11.2792 43.9019 11.2792 43.658 9.57073 43.658C7.86226 43.658 7.86226 43.6948 6.15379 43.6948C4.80291 43.6948 3.66204 43.1747 2.77658 42.4568C1.89113 41.7388 1.32921 40.8138 1.32921 39.7185C1.32921 38.3884 1.49949 38.3884 1.49949 37.063C1.49949 35.7375 1.43137 35.7329 1.43137 34.4075C1.43137 33.0821 1.05108 33.0775 1.05108 31.752C1.05108 30.4266 1.10784 30.4266 1.10784 29.0965C1.10784 27.7665 1.19298 27.7665 1.19298 26.4411C1.19298 25.1156 1.22136 25.111 1.22136 23.7856C1.22136 22.4601 1.36894 22.4555 1.36894 21.1301C1.36894 19.8047 1.32921 19.8001 1.32921 18.4746C1.32921 17.1492 1 17.1446 1 15.8145C1 14.4845 1.00568 14.4845 1.00568 13.1591C1.00568 11.8336 1.00568 11.829 1.00568 10.499C1.00568 9.16894 1.52787 9.16894 1.52787 7.8389C1.52787 6.50886 1.17028 6.50886 1.17028 5.17881C1.17028 4.08349 1.94221 3.19986 2.82767 2.48191C3.71312 1.76397 4.80291 1.43721 6.15379 1.43721C7.86226 1.43721 7.86226 1.32216 9.56505 1.32216C11.2678 1.32216 11.2735 1.17949 12.9763 1.17949C14.6791 1.17949 14.6848 1.08744 16.3876 1.08744C18.0904 1.08744 18.0961 1.43261 19.7988 1.43261C21.5016 1.43261 21.5073 1.40039 23.2101 1.40039C24.9129 1.40039 24.9186 1.26233 26.6214 1.26233C28.3242 1.26233 28.3298 1.36358 30.0326 1.36358C31.7354 1.36358 31.7411 1.04602 33.4439 1.04602C35.1467 1.04602 35.1524 1.42801 36.8552 1.42801C38.558 1.42801 38.5636 1.10125 40.2664 1.10125C41.9692 1.10125 41.9749 1.08744 43.6777 1.08744C45.3805 1.08744 45.3862 1.39119 47.089 1.39119C48.7918 1.39119 48.7974 1.39119 50.5002 1.39119C52.203 1.39119 52.2087 1.28074 53.9115 1.28074C55.6143 1.28074 55.62 1.04142 57.3228 1.04142C59.0256 1.04142 59.0312 1.2025 60.734 1.2025C62.4368 1.2025 62.4425 1.31295 64.1453 1.31295C65.8481 1.31295 65.8481 1.12886 67.5566 1.12886C69.265 1.12886 69.2593 1.30835 70.9678 1.30835C72.6763 1.30835 72.6706 1.24852 74.3791 1.24852C76.0876 1.24852 76.0876 1.27153 77.7904 1.27153C79.4931 1.27153 79.4931 1.03222 81.2016 1.03222C82.9101 1.03222 82.9044 1.10125 84.6129 1.10125C86.3214 1.10125 86.3214 1.06443 88.0241 1.06443C89.7269 1.06443 89.7326 1.13807 91.4354 1.13807C93.1382 1.13807 93.1439 1.35897 94.8467 1.35897C96.5495 1.35897 96.5551 1.18869 98.2579 1.18869C99.9607 1.18869 99.9664 1.0046 101.669 1.0046C103.372 1.0046 103.378 1.34056 105.08 1.34056C106.783 1.34056 106.789 1.18869 108.492 1.18869C110.195 1.18869 110.2 1.43261 111.903 1.43261C113.606 1.43261 113.611 1.405 115.314 1.405C117.017 1.405 117.023 1.30835 118.726 1.30835C120.428 1.30835 120.434 1.4188 122.137 1.4188C123.84 1.4188 123.845 1.44642 125.548 1.44642C127.251 1.44642 127.257 1.28534 128.965 1.28534C130.673 1.28534 130.673 1.11966 132.382 1.11966C134.09 1.11966 134.09 1.22551 135.799 1.22551C137.507 1.22551 137.507 1.07824 139.216 1.07824C140.924 1.07824 140.924 1.25312 142.633 1.25312C144.341 1.25312 144.341 1.16568 146.044 1.16568C147.747 1.16568 147.752 1.16568 149.455 1.16568C151.158 1.16568 151.164 1.34977 152.872 1.34977C154.581 1.34977 154.581 1.10585 156.289 1.10585C157.998 1.10585 157.998 1.13346 159.706 1.13346C161.415 1.13346 161.415 1 163.123 1C164.832 1 164.832 1.12426 166.534 1.12426C168.237 1.12426 168.243 1.36358 169.951 1.36358C171.66 1.36358 171.66 1.06443 173.368 1.06443C175.077 1.06443 175.077 1.33596 176.785 1.33596C178.136 1.33596 179.328 1.68573 180.213 2.40368C181.099 3.12162 181.848 4.08809 181.848 5.18342C181.848 6.51346 181.803 6.51346 181.803 7.8389C181.803 9.16434 181.496 9.16894 181.496 10.4944C181.496 11.8198 181.57 11.8244 181.57 13.1499C181.57 14.4753 181.74 14.4753 181.74 15.8053C181.74 17.1354 181.491 17.1354 181.491 18.4608C181.491 19.7863 181.547 19.7909 181.547 21.1163C181.547 22.4417 181.82 22.4463 181.82 23.7718C181.82 25.0972 181.933 25.1018 181.933 26.4273C181.933 27.7527 181.718 27.7573 181.718 29.0873C181.718 30.4174 181.945 30.4174 181.945 31.7428C181.945 33.0683 181.485 33.0729 181.485 34.4029C181.485 35.7329 181.723 35.7329 181.695 37.063C181.666 38.393 181.581 38.393 181.581 39.7231L181.587 39.7277Z" stroke="black" stroke-width="1.38067" stroke-linecap="round" stroke-linejoin="round"/>
</svg>
