<svg width="173" height="42" viewBox="0 0 173 42" fill="none" xmlns="http://www.w3.org/2000/svg">
<path d="M172.435 0.108995C172.435 1.53578 172.521 1.53578 172.521 2.95763C172.521 4.37948 172.635 4.38441 172.635 5.80626C172.635 7.22811 172.429 7.23305 172.429 8.6549C172.429 10.0767 172.229 10.0767 172.229 11.5035C172.229 12.9303 172.554 12.9303 172.554 14.3522C172.554 15.774 172.289 15.7789 172.289 17.2008C172.289 18.6226 172.24 18.6276 172.24 20.0494C172.24 21.4713 172.24 21.4762 172.24 22.8981C172.24 24.3199 172.402 24.3248 172.402 25.7516C172.402 27.1784 172.618 27.1784 172.618 28.6003C172.618 30.0221 172.397 30.0271 172.397 31.4538C172.397 32.8806 172.413 32.8806 172.413 34.3074C172.413 35.7342 172.564 35.7342 172.564 37.161C172.564 38.336 171.9 39.4468 171.057 40.212C170.214 40.9773 168.999 41.3525 167.718 41.3525C166.092 41.3525 166.092 41.3278 164.471 41.3278C162.851 41.3278 162.845 41.3278 161.224 41.3278C159.604 41.3278 159.598 41.4858 157.977 41.4858C156.357 41.4858 156.351 41.4315 154.73 41.4315C153.11 41.4315 153.104 41.5746 151.483 41.5746C149.863 41.5746 149.857 41.229 148.236 41.229C146.616 41.229 146.61 41.4463 144.99 41.4463C143.369 41.4463 143.363 41.2389 141.743 41.2389C140.122 41.2389 140.116 41.6191 138.496 41.6191C136.875 41.6191 136.869 41.6437 135.249 41.6437C133.628 41.6437 133.622 41.6043 132.002 41.6043C130.381 41.6043 130.375 41.6388 128.755 41.6388C127.134 41.6388 127.128 41.3722 125.508 41.3722C123.887 41.3722 123.881 41.5894 122.261 41.5894C120.64 41.5894 120.635 41.5499 119.014 41.5499C117.393 41.5499 117.388 41.3969 115.767 41.3969C114.146 41.3969 114.141 41.2488 112.52 41.2488C110.899 41.2488 110.899 41.5993 109.273 41.5993C107.647 41.5993 107.652 41.4512 106.026 41.4512C104.4 41.4512 104.405 41.4315 102.779 41.4315C101.153 41.4315 101.153 41.4611 99.5319 41.4611C97.9111 41.4611 97.9111 41.6191 96.2849 41.6191C94.6587 41.6191 94.6641 41.229 93.038 41.229C91.4118 41.229 91.4118 41.3327 89.791 41.3327C88.1702 41.3327 88.1648 41.2488 86.544 41.2488C84.9232 41.2488 84.9178 41.3969 83.297 41.3969C81.6763 41.3969 81.6709 41.5006 80.0501 41.5006C78.4293 41.5006 78.4239 41.3327 76.8031 41.3327C75.1823 41.3327 75.1769 41.4808 73.5561 41.4808C71.9353 41.4808 71.9299 41.3525 70.3091 41.3525C68.6884 41.3525 68.683 41.4018 67.0622 41.4018C65.4414 41.4018 65.436 41.313 63.8152 41.313C62.1944 41.313 62.189 41.4166 60.5682 41.4166C58.9474 41.4166 58.942 41.5598 57.3213 41.5598C55.7005 41.5598 55.6951 41.5203 54.0743 41.5203C52.4535 41.5203 52.4481 41.5203 50.8219 41.5203C49.1957 41.5203 49.1957 41.4808 47.5695 41.4808C45.9434 41.4808 45.9434 41.2439 44.3172 41.2439C42.691 41.2439 42.691 41.1649 41.0648 41.1649C39.4386 41.1649 39.4386 41.1649 37.8124 41.1649C36.1862 41.1649 36.1862 41.3475 34.5654 41.3475C32.9447 41.3475 32.9393 41.3327 31.3185 41.3327C29.6977 41.3327 29.6923 41.6437 28.0661 41.6437C26.4399 41.6437 26.4399 41.4364 24.8137 41.4364C23.1875 41.4364 23.1875 41.1895 21.5613 41.1895C19.9352 41.1895 19.9352 41.6388 18.309 41.6388C16.6828 41.6388 16.6828 41.2932 15.062 41.2932C13.4412 41.2932 13.4358 41.1994 11.8096 41.1994C10.1834 41.1994 10.1834 41.3673 8.55725 41.3673C6.93107 41.3673 6.93107 41.6092 5.30488 41.6092C4.01906 41.6092 2.90612 40.8835 2.06331 40.1133C1.2205 39.3431 0.637019 38.3261 0.637019 37.1511C0.637019 35.7243 0.528966 35.7243 0.528966 34.3025C0.528966 32.8806 0.863928 32.8757 0.863928 31.4538C0.863928 30.032 0.507356 30.0271 0.507356 28.6052C0.507356 27.1834 0.501953 27.1834 0.501953 25.7566C0.501953 24.3298 0.896344 24.3298 0.896344 22.9079C0.896344 21.4861 0.620811 21.4812 0.620811 20.0593C0.620811 18.6375 0.523564 18.6325 0.523564 17.2107C0.523564 15.7888 0.674837 15.7839 0.674837 14.362C0.674837 12.9402 0.610005 12.9353 0.610005 11.5085C0.610005 10.0817 0.582992 10.0817 0.582992 8.65983C0.582992 7.23798 0.831513 7.23305 0.831513 5.80626C0.831513 4.37948 0.880136 4.37948 0.880136 2.95269C0.880136 1.52591 0.669434 1.52591 0.669434 0.0991211" fill="url(#paint0_linear_868_2989)"/>
<defs>
<linearGradient id="paint0_linear_868_2989" x1="0.501953" y1="0.0991211" x2="19.4519" y2="78.6148" gradientUnits="userSpaceOnUse">
<stop stop-color="#A372FF"/>
<stop offset="0.951042" stop-color="#46C9D2"/>
</linearGradient>
</defs>
</svg>
