<svg width="201" height="44" viewBox="0 0 201 44" fill="none" xmlns="http://www.w3.org/2000/svg">
<path fill-rule="evenodd" clip-rule="evenodd" d="M12.0748 18.4578L25.8904 32.5214L39.5585 18.608L50.7652 30.0158L37.7445 43.2703L34.3948 39.9514L44.1552 30.0158L39.5585 25.3366L25.8904 39.2501L12.0748 25.1865L7.53408 29.8087L17.4429 39.8954L14.0932 43.2143L0.924072 29.8087L12.0748 18.4578Z" fill="white"/>
<path fill-rule="evenodd" clip-rule="evenodd" d="M39.6147 25.1862L25.7991 11.1227L12.1311 25.0361L0.924334 13.6282L13.945 0.37381L17.2946 3.69271L7.53433 13.6282L12.1311 18.3075L25.7991 4.39401L39.6147 18.4576L44.1554 13.8353L34.2466 3.74866L37.5962 0.429759L50.7654 13.8353L39.6147 25.1862Z" fill="white"/>
<path fill-rule="evenodd" clip-rule="evenodd" d="M23.7367 42.9399V34.0793H28.2482V42.9399H23.7367Z" fill="white"/>
<path fill-rule="evenodd" clip-rule="evenodd" d="M23.7367 9.5648V0.704215H28.2482V9.5648H23.7367Z" fill="white"/>
<path d="M65.9677 10.8348H61.4721V33.4696H65.9677V10.8348Z" fill="white"/>
<path d="M88.7712 16.8078C86.7277 16.8078 84.7786 17.6881 83.8041 19.6058C82.7981 17.6881 80.9119 16.8078 78.7112 16.8078C76.7307 16.8078 75.2218 17.5623 74.4358 18.9142L73.9642 17.1223H69.8773V33.4696H74.2786V24.3213C74.2786 21.9007 75.5361 20.7375 77.3909 20.7375C79.1514 20.7375 80.346 21.8379 80.346 24.51V33.4696H84.59V24.4156C84.6528 21.8692 85.9732 20.7375 87.7023 20.7375C89.4942 20.7375 90.6574 21.8379 90.6574 24.2899V33.501H95.0901V23.4097C95.0901 18.8827 92.0406 16.8078 88.7712 16.8078Z" fill="white"/>
<path d="M117.476 16.8078C115.432 16.8078 113.484 17.6881 112.509 19.6058C111.503 17.6881 109.616 16.8078 107.416 16.8078C105.436 16.8078 103.927 17.5623 103.141 18.9142L102.669 17.1223H98.5824V33.4696H102.984V24.3213C102.984 21.9007 104.241 20.7375 106.096 20.7375C107.856 20.7375 109.051 21.8379 109.051 24.51V33.4696H113.295V24.4156C113.357 21.8692 114.679 20.7375 116.408 20.7375C118.199 20.7375 119.363 21.8379 119.363 24.2899V33.501H123.795V23.4097C123.795 18.8827 120.746 16.8078 117.476 16.8078Z" fill="white"/>
<path d="M138.008 17.1223V26.0818C138.008 28.5025 136.876 29.9486 134.707 29.9801C132.632 30.0429 131.312 28.8169 131.312 26.2705V17.1223H127.131V26.8363C127.131 31.0175 129.55 33.784 133.732 33.784C135.681 33.784 137.095 32.9037 137.944 31.6776L138.165 33.4696H142.189V17.1223H138.008Z" fill="white"/>
<path d="M155.104 16.8078C152.652 16.8078 151.017 17.7195 150.168 19.0713L149.917 17.1223H145.83V33.4696H150.232V24.8243C150.232 22.1836 151.489 20.5804 153.815 20.5804C155.953 20.5804 157.242 21.9636 157.242 24.6671V33.4696H161.675V23.7555C161.675 19.5743 159.285 16.8078 155.104 16.8078Z" fill="white"/>
<path d="M180.923 25.0445C180.923 20.0459 177.684 16.8078 172.811 16.8078C167.938 16.8078 164.67 20.203 164.67 25.296C164.67 30.4202 167.938 33.8154 172.843 33.8154C176.961 33.8154 180.074 31.5205 180.796 28.1252H176.364C175.861 29.5399 174.572 30.2629 172.969 30.2629C170.862 30.2629 169.164 28.9112 169.102 26.4905H180.923V25.0445ZM172.811 20.2345C174.729 20.2345 176.333 21.3349 176.521 23.5983H169.133C169.322 21.3349 170.926 20.2345 172.811 20.2345Z" fill="white"/>
<path d="M182.641 17.1223V20.9575H185.156V33.4696H189.589V20.9575H193.33V17.1223H189.589V15.4561C189.589 14.2929 189.902 13.4127 191.695 13.4127H193.33V9.82879H190.72C186.601 9.82879 185.156 11.8408 185.156 15.0159V17.1223H182.641Z" fill="white"/>
<path d="M196.236 14.6072H200.7L200.763 9.82879H196.3L196.236 14.6072ZM196.3 33.4696H200.7V17.1223H196.3V33.4696Z" fill="white"/>
</svg>
