<svg width="1440" height="28" viewBox="0 0 1440 28" fill="none" xmlns="http://www.w3.org/2000/svg">
<path fill-rule="evenodd" clip-rule="evenodd" d="M8.67186 25.027C10.5616 25.237 12.5144 24.8801 14.4252 24.6281C18.8135 24.0612 23.1599 23.2423 27.5483 22.8853C30.5089 22.6544 33.5114 23.0113 36.808 23.1373C36.514 23.8512 36.3461 24.3131 36.0731 25.006C38.6768 25.153 41.2593 25.321 43.8419 25.426C52.5137 25.7409 61.1856 26.2869 69.8573 26.2449C75.4846 26.2239 81.1328 25.699 86.781 26.0559C88.1248 26.1399 89.5106 25.7619 90.8754 25.51C94.9908 24.7541 99.1273 25.216 103.264 25.09C106.56 25.006 109.857 24.9011 113.174 24.8381C113.72 24.8381 114.287 24.8381 114.833 24.9011C117.752 25.321 120.586 25.531 122.686 22.8224C122.896 22.5494 123.442 22.3604 123.799 22.3814C124.954 22.4654 125.941 22.0875 126.969 21.6045C127.557 21.3106 128.313 21.2266 128.964 21.2686C132.114 21.4365 135.242 21.7095 138.392 21.8775C140.03 21.9615 141.688 21.9615 143.347 21.9615C145.279 21.9615 147.211 21.8985 149.142 21.9615C149.667 21.9615 150.171 22.2554 150.654 22.5074C150.843 22.6124 150.969 22.9273 151.137 23.1583C150.843 24.7961 148.722 23.5153 148.26 25.069C151.935 26.4129 155.504 27.6097 159.662 27.3367C165.541 26.9378 171.504 27.3997 177.404 27.5467C181.688 27.6517 185.929 27.9246 190.213 27.2527C192.753 26.8538 195.378 27.0428 198.065 26.9798C197.771 25.615 197.016 26.2239 196.491 26.2239C195.819 26.2239 195.084 26.4968 194.706 25.657C194.769 25.531 194.832 25.3 194.916 25.3C196.428 25.216 197.96 24.9641 199.43 25.132C201.299 25.342 203.567 24.1452 204.974 26.4548C205.1 26.6648 205.75 26.6018 206.17 26.6228C209.593 26.7488 213.036 26.8538 216.816 26.9798C216.06 26.3709 215.577 25.9719 215.115 25.573C215.409 24.5441 216.207 24.7961 216.795 24.9221C220.364 25.678 223.934 25.216 227.461 24.8381C229.96 24.5651 232.396 24.6701 234.873 24.9431C238.149 25.3 241.466 25.51 244.763 25.531C252.196 25.615 259.65 25.531 267.083 25.531C268.742 25.531 270.4 25.699 272.038 25.8249C277.287 26.2449 282.495 25.447 287.702 24.9851C294.736 24.3551 301.749 24.4811 308.783 24.9851C312.919 25.3 317.035 25.405 321.192 25.552C327.386 25.7829 333.601 26.0979 339.796 26.1399C344.898 26.1819 350 25.9509 355.103 25.7199C362.829 25.363 370.514 24.7751 378.22 24.4811C382.903 24.3131 387.606 24.5651 392.288 24.5861C399.028 24.5861 405.769 24.7121 412.53 25.048C419.123 25.363 425.758 24.9851 432.372 24.9431C437.054 24.9011 441.736 24.9431 446.44 24.8801C452.907 24.7961 459.395 24.6911 465.883 24.5441C474.009 24.3341 482.135 24.1452 490.282 23.8092C496.476 23.5573 502.67 23.1163 508.864 22.7594C509.557 22.7174 510.25 22.7174 510.943 22.7174C520.601 22.7174 530.26 22.7804 539.898 22.7174C547.625 22.6544 555.331 22.4234 563.058 22.2764C565.409 22.2344 567.74 22.2554 570.092 22.1714C575.614 22.0035 581.136 21.8145 586.637 21.6045C592.264 21.3946 597.913 21.1006 603.582 20.9116C608.39 20.7646 613.219 20.8906 617.944 19.7778C622.185 20.2607 626.406 19.6938 630.647 19.7358C637.261 19.8198 643.875 19.9248 650.489 19.9038C652.547 19.9038 654.584 19.5048 656.641 19.3578C658.699 19.2109 660.799 18.7909 662.815 19.0429C669.828 19.8618 676.862 19.4628 683.875 19.1269C690.216 18.8329 696.536 18.35 702.877 18.308C707.769 18.266 712.683 18.308 717.575 18.35C718.352 18.35 719.129 18.35 719.927 18.35C720.703 18.35 721.501 18.35 722.278 18.35C727.171 18.308 732.084 18.266 736.976 18.287C743.317 18.329 749.637 18.8329 755.979 19.1059C763.013 19.4208 770.026 19.8198 777.039 19.0219C779.054 18.7909 781.154 19.1899 783.191 19.3368C785.248 19.5048 787.306 19.8828 789.343 19.8828C795.978 19.8828 802.592 19.7988 809.206 19.7148C813.427 19.6518 817.668 20.2397 821.909 19.7568C826.634 20.8696 831.463 20.7226 836.271 20.8906C841.92 21.0796 847.568 21.3736 853.216 21.5835C858.738 21.7935 864.239 21.9825 869.762 22.1504C872.113 22.2344 874.444 22.2134 876.796 22.2554C884.523 22.4024 892.25 22.6334 899.955 22.6964C909.614 22.7804 919.252 22.6964 928.91 22.6964C929.603 22.6964 930.296 22.6964 930.989 22.7384C937.183 23.0953 943.356 23.5363 949.572 23.7882C957.697 24.1032 965.823 24.3131 973.97 24.5231C980.437 24.6701 986.925 24.7751 993.413 24.8591C998.096 24.9221 1002.8 24.8591 1007.48 24.9221C1014.1 24.9641 1020.73 25.342 1027.32 25.027C1034.08 24.6911 1040.82 24.5651 1047.56 24.5651C1052.25 24.5651 1056.95 24.2921 1061.63 24.4601C1069.34 24.7331 1077.04 25.342 1084.77 25.699C1089.87 25.9509 1094.98 26.1609 1100.08 26.1189C1106.29 26.0769 1112.49 25.7619 1118.7 25.531C1122.84 25.384 1126.98 25.258 1131.09 24.9641C1138.13 24.4391 1145.14 24.3341 1152.17 24.9641C1157.38 25.426 1162.59 26.2239 1167.84 25.8039C1169.49 25.678 1171.15 25.51 1172.79 25.51C1180.25 25.51 1187.68 25.594 1195.13 25.51C1198.43 25.468 1201.75 25.279 1205.02 24.9221C1207.5 24.6491 1209.94 24.5441 1212.43 24.8171C1215.98 25.195 1219.55 25.678 1223.12 24.9011C1223.69 24.7751 1224.51 24.5231 1224.8 25.552C1224.34 25.9299 1223.86 26.3289 1223.1 26.9588C1226.88 26.8328 1230.32 26.7278 1233.75 26.6018C1234.14 26.6018 1234.8 26.6648 1234.94 26.4338C1236.35 24.1242 1238.62 25.321 1240.49 25.111C1241.98 24.9431 1243.51 25.195 1245 25.279C1245.08 25.279 1245.13 25.51 1245.21 25.636C1244.83 26.4758 1244.1 26.2029 1243.43 26.2029C1242.9 26.2029 1242.14 25.594 1241.83 26.9588C1244.52 27.0218 1247.16 26.8328 1249.7 27.2317C1253.99 27.9036 1258.23 27.6307 1262.49 27.5257C1268.41 27.3787 1274.35 26.9378 1280.25 27.3157C1284.41 27.5887 1287.98 26.3919 1291.66 25.048C1291.17 23.4943 1289.07 24.7751 1288.78 23.1373C1288.95 22.9063 1289.05 22.5914 1289.26 22.4864C1289.74 22.2344 1290.27 21.9615 1290.79 21.9405C1292.73 21.8985 1294.66 21.9405 1296.59 21.9405C1298.23 21.9405 1299.89 21.9405 1301.55 21.8565C1304.69 21.6885 1307.82 21.4155 1310.97 21.2476C1311.62 21.2056 1312.38 21.3106 1312.99 21.5835C1314 22.0665 1314.98 22.4444 1316.14 22.3604C1316.5 22.3394 1317.04 22.5284 1317.25 22.8014C1319.35 25.51 1322.19 25.3 1325.1 24.8801C1325.65 24.7961 1326.2 24.7961 1326.74 24.8171C1330.04 24.8801 1333.36 24.9641 1336.65 25.069C1340.79 25.195 1344.93 24.7541 1349.02 25.489C1350.38 25.7409 1351.77 26.1189 1353.11 26.0349C1358.78 25.678 1364.41 26.1819 1370.04 26.2239C1378.71 26.2659 1387.38 25.7199 1396.05 25.405C1398.64 25.3 1401.22 25.132 1403.82 24.9851C1403.55 24.2921 1403.36 23.8512 1403.09 23.1163C1406.38 23.0113 1409.39 22.6334 1412.37 22.8643C1416.76 23.2213 1421.1 24.0402 1425.49 24.6071C1427.4 24.8381 1429.35 25.195 1431.24 25.006C1434.14 24.6911 1437.12 25.153 1440 24.2712V9.99315C1438.47 10.0771 1436.93 10.1401 1435.4 10.1821C1432.92 10.2661 1430.45 10.4971 1428.01 9.72018C1427.3 9.48922 1426.35 9.53121 1425.64 9.80417C1424 10.3921 1422.43 10.3081 1420.77 9.97215C1419.7 9.74118 1418.58 9.67819 1417.49 9.69919C1415.06 9.74118 1412.66 10.1611 1410.18 9.53121C1408.97 9.23725 1407.45 9.72018 1406.19 10.2031C1405.1 10.6231 1404.07 10.749 1402.98 10.5601C1401.76 10.3501 1400.53 10.1821 1399.35 9.84617C1398.24 9.55221 1397.19 9.36323 1396.2 10.1401C1395.09 11.043 1393.91 10.959 1392.71 10.4341C1390.89 9.6152 1389.06 9.34224 1387.09 9.99315C1386.35 10.2451 1385.47 10.0771 1384.67 10.0351C1383.16 9.97215 1381.63 9.65719 1380.16 9.84617C1376.9 10.2451 1373.59 10.0351 1370.33 10.833C1368.9 11.169 1367.27 11.106 1365.82 10.791C1363.21 10.2451 1360.61 10.3711 1357.99 10.4341C1355.93 10.4971 1353.85 10.749 1351.79 10.6441C1350.03 10.5601 1348.1 10.4761 1346.54 9.78318C1344.15 8.71232 1341.92 8.41837 1339.36 8.96429C1336.78 9.48922 1334.05 9.13227 1331.84 7.66247C1330.69 6.90658 1329.7 6.59162 1328.46 6.61262C1327.08 6.61262 1325.69 6.63361 1324.33 6.61262C1319.52 6.50763 1314.73 6.65461 1309.92 6.86458C1301.13 7.26353 1292.29 6.90658 1283.47 6.82259C1281.41 6.82259 1279.33 6.67561 1277.27 6.67561C1270.51 6.67561 1263.75 6.78059 1256.99 6.63362C1248.17 6.42364 1239.35 5.94071 1230.53 5.70975C1227.36 5.62576 1224.19 5.75174 1221.02 5.98271C1217.73 6.21367 1214.45 6.86458 1211.15 7.01156C1204.41 7.30552 1197.65 7.4525 1190.89 7.55749C1185.24 7.62048 1179.57 7.4735 1173.93 7.55749C1167.02 7.66247 1160.13 7.91444 1153.24 8.08241C1151.19 8.12441 1149.15 8.12441 1147.15 7.30552C1146.06 6.86458 1144.72 6.92757 1143.48 6.90658C1141.82 6.88558 1140.18 6.96957 1138.52 7.01156C1129.29 7.34752 1120.05 7.70447 1110.83 8.06142C1110.16 8.08241 1109.4 8.10341 1109.21 9.25825C1109.76 9.76218 1110.39 10.3501 1111.31 11.19C1109.36 11.5049 1107.76 11.7779 1106.17 12.0089C1102.77 12.4918 1099.36 13.3107 1095.94 13.3947C1090.57 13.4787 1085.17 13.3527 1079.84 12.7858C1070.89 11.7989 1061.95 12.0719 1053.02 12.5338C1052.23 12.5758 1051.34 12.7228 1050.63 13.0587C1048.93 13.8566 1047.17 13.8986 1045.38 13.9196C1039.17 13.9406 1032.97 14.0246 1026.76 14.0246C1019.72 14.0246 1012.69 13.9196 1005.68 13.8776C1003.47 13.8776 1001.27 13.9406 999.062 13.8776C996.857 13.8356 994.652 13.5416 992.469 13.5626C986.673 13.5626 980.878 13.7306 975.083 13.7726C972.752 13.7936 970.401 13.6046 968.049 13.7516C956.774 14.4865 945.498 14.9694 934.244 13.7096C931.241 13.3737 928.197 13.1637 925.257 12.4918C923.367 12.0509 921.498 11.7569 919.567 11.7149C915.85 11.6519 912.134 11.5259 908.417 11.4419C905.394 11.358 902.37 11.274 899.326 11.232C897.247 11.19 895.105 10.3921 892.627 8.43936C895.546 8.1874 897.835 6.88558 900.501 6.99057C901.887 7.03256 903.252 6.94857 904.638 6.82259C905.52 6.7386 906.696 7.11655 907.031 5.81473C907.199 5.18482 906.15 4.89086 904.617 5.10083C903.798 5.20581 903 5.37379 902.181 5.37379C900.27 5.35279 898.339 5.14282 896.407 5.18482C889.94 5.3318 883.473 5.10083 876.985 5.39479C872.575 5.60476 868.166 5.3108 863.757 5.2898C861.531 5.2898 859.389 4.99584 857.247 4.28194C855.568 3.71502 853.804 3.29508 852.04 3.10611C848.744 2.79115 845.447 2.66517 842.151 2.49719C841.185 2.4552 840.219 2.49719 839.274 2.47619C835.599 2.4552 831.946 3.52605 828.25 2.66517C827.873 2.58118 827.432 2.62318 827.012 2.70716C823.757 3.29508 820.503 3.27409 817.206 3.25309C812.398 3.25309 807.568 3.40007 802.76 3.40007C793.794 3.37907 784.829 3.37907 775.863 3.1901C770.635 3.08511 765.406 2.62318 760.178 2.35021C756.063 2.14024 751.926 1.97227 747.79 1.78329C746.131 1.6993 744.472 1.7203 742.834 1.51033C736.052 0.544467 729.207 0.502471 722.383 0.397486V0.334495C722.131 0.334495 721.858 0.334495 721.606 0.334495C721.081 0.334495 720.557 0.334496 720.032 0.355493C719.507 0.355493 718.982 0.355492 718.457 0.334495C718.205 0.334495 717.932 0.334495 717.68 0.334495V0.397486C710.856 0.502471 704.032 0.544467 697.229 1.51033C695.591 1.7413 693.932 1.7203 692.273 1.78329C688.137 1.99326 684.022 2.14024 679.885 2.35021C674.636 2.62318 669.408 3.06411 664.2 3.1901C655.256 3.37907 646.269 3.37907 637.303 3.40007C632.495 3.40007 627.665 3.23209 622.857 3.25309C619.582 3.25309 616.306 3.27408 613.052 2.70716C612.653 2.62318 612.191 2.58118 611.813 2.66517C608.117 3.50505 604.464 2.4552 600.789 2.47619C599.844 2.47619 598.879 2.4552 597.913 2.49719C594.616 2.68617 591.299 2.79115 588.023 3.10611C586.259 3.29508 584.475 3.71502 582.795 4.28194C580.674 5.01684 578.511 5.2898 576.286 5.2898C571.876 5.3108 567.467 5.60476 563.058 5.39479C556.59 5.10083 550.102 5.3318 543.635 5.18482C541.704 5.14282 539.793 5.35279 537.861 5.37379C537.063 5.37379 536.244 5.22681 535.446 5.10083C533.914 4.86986 532.864 5.16382 533.032 5.81473C533.368 7.11655 534.544 6.7386 535.425 6.82259C536.79 6.94857 538.176 7.03256 539.562 6.99057C542.228 6.88558 544.517 8.1874 547.436 8.43936C544.958 10.3711 542.816 11.19 540.738 11.232C537.714 11.295 534.691 11.358 531.646 11.4419C527.929 11.5259 524.192 11.6519 520.475 11.7149C518.544 11.7359 516.696 12.0509 514.785 12.4918C511.867 13.1847 508.801 13.3737 505.798 13.7096C494.523 14.9694 483.248 14.5075 471.972 13.7516C469.621 13.6046 467.29 13.8146 464.938 13.7726C459.143 13.7096 453.369 13.5836 447.553 13.5626C445.369 13.5626 443.164 13.8146 440.96 13.8776C438.776 13.9196 436.55 13.8356 434.345 13.8776C427.311 13.9196 420.298 14.0036 413.243 14.0246C407.049 14.0246 400.834 13.9616 394.64 13.9196C392.834 13.9196 391.071 13.8566 389.391 13.0587C388.677 12.7228 387.816 12.5758 386.997 12.5338C378.052 12.0719 369.129 11.7989 360.184 12.7858C354.851 13.3527 349.433 13.4787 344.079 13.3947C340.657 13.3317 337.255 12.5128 333.874 12.0089C332.258 11.7779 330.662 11.5049 328.709 11.19C329.633 10.3501 330.263 9.76218 330.809 9.25825C330.62 8.10341 329.885 8.08241 329.192 8.06142C319.953 7.70447 310.736 7.36851 301.497 7.01156C299.838 6.94857 298.179 6.86458 296.521 6.90658C295.303 6.90658 293.938 6.84359 292.867 7.30552C290.873 8.1454 288.836 8.1454 286.778 8.08241C279.87 7.91444 272.983 7.66247 266.075 7.55749C260.427 7.4735 254.779 7.64147 249.13 7.55749C242.369 7.4525 235.608 7.30552 228.868 7.01156C225.572 6.86458 222.296 6.21367 219 5.98271C215.85 5.75174 212.658 5.60476 209.488 5.70975C200.669 5.96171 191.85 6.42364 183.032 6.63362C176.271 6.78059 169.509 6.65461 162.748 6.67561C160.67 6.67561 158.612 6.80159 156.554 6.82259C147.736 6.88558 138.896 7.26353 130.098 6.86458C125.29 6.65461 120.502 6.48664 115.694 6.61262C114.308 6.65461 112.943 6.63361 111.557 6.61262C110.319 6.61262 109.311 6.90658 108.177 7.66247C105.972 9.13227 103.243 9.48922 100.66 8.96429C98.0774 8.43936 95.8517 8.71232 93.479 9.78318C91.9043 10.4971 89.9935 10.5811 88.2088 10.6441C86.151 10.728 84.0934 10.4971 82.0147 10.4341C79.4111 10.3501 76.8074 10.2241 74.2037 10.791C72.755 11.106 71.1171 11.169 69.6893 10.833C66.4558 10.0141 63.1383 10.2451 59.8837 9.84617C58.3929 9.65719 56.8812 9.99315 55.3694 10.0351C54.5506 10.0771 53.6896 10.2451 52.9337 9.99315C50.96 9.34224 49.1333 9.6152 47.3065 10.4341C46.0887 10.98 44.9339 11.043 43.8211 10.1401C42.8342 9.36323 41.8053 9.55221 40.6715 9.84617C39.4957 10.1821 38.2567 10.3501 37.0389 10.5601C35.9471 10.749 34.9183 10.6231 33.8264 10.2031C32.5876 9.74118 31.0548 9.23725 29.8369 9.53121C27.3593 10.1611 24.9447 9.74118 22.53 9.69919C21.4382 9.67819 20.3043 9.74118 19.2334 9.97215C17.5747 10.3081 15.9999 10.3921 14.3621 9.80417C13.6482 9.53121 12.7033 9.48922 11.9894 9.72018C9.55377 10.5181 7.05508 10.2871 4.59842 10.1821C3.04464 10.1401 1.53285 10.0561 5.94845e-05 9.99315V24.2921C2.87666 25.153 5.85833 24.7121 8.75593 25.027H8.67186Z" fill="white"/>
</svg>
