<svg width="224" height="44" viewBox="0 0 224 44" fill="none" xmlns="http://www.w3.org/2000/svg">
<path d="M54.1983 23.4939C54.1983 28.8853 57.5539 32.4568 62.6902 32.4568C67.1075 32.4568 70.3947 29.744 70.9083 25.7947H66.6965C66.2514 27.6491 64.7789 28.6793 62.6902 28.6793C60.0194 28.6793 58.3758 26.6875 58.3758 23.4939C58.3758 20.3001 60.1563 18.274 62.8272 18.274C64.8132 18.274 66.2172 19.2699 66.6965 21.193H70.874C70.4289 17.1064 67.2787 14.5308 62.6561 14.5308C57.6568 14.5308 54.1983 18.2397 54.1983 23.4939Z" fill="white"/>
<path d="M73.0246 23.4939C73.0246 28.7823 76.8254 32.4226 82.0644 32.4226C87.3034 32.4226 91.1043 28.7823 91.1043 23.4939C91.1043 18.2053 87.3034 14.5652 82.0644 14.5652C76.8254 14.5652 73.0246 18.2053 73.0246 23.4939ZM77.2021 23.4939C77.2021 20.4031 79.1881 18.3083 82.0644 18.3083C84.9407 18.3083 86.9268 20.4031 86.9268 23.4939C86.9268 26.5845 84.9407 28.6793 82.0644 28.6793C79.1881 28.6793 77.2021 26.5845 77.2021 23.4939Z" fill="white"/>
<path d="M101.367 32.4568C103.935 32.4568 106.126 31.3237 107.153 29.3661L107.427 32.0104H111.263V6.4607H107.119V17.2094C106.058 15.5267 103.969 14.5308 101.606 14.5308C96.5043 14.5308 93.4225 18.3083 93.4225 23.5969C93.4225 28.8511 96.47 32.4568 101.367 32.4568ZM102.291 28.6106C99.3806 28.6106 97.6 26.4815 97.6 23.4594C97.6 20.4376 99.3806 18.274 102.291 18.274C105.202 18.274 107.085 20.4031 107.085 23.4594C107.085 26.5159 105.202 28.6106 102.291 28.6106Z" fill="white"/>
<path d="M123.184 32.4568C127.601 32.4568 130.682 30.2247 131.402 26.5159H127.532C127.053 28.1299 125.546 29.0228 123.252 29.0228C120.478 29.0228 118.903 27.5117 118.595 24.5241L131.333 24.4898V23.2192C131.333 17.9306 128.114 14.5308 123.047 14.5308C118.081 14.5308 114.623 18.2053 114.623 23.5282C114.623 28.7823 118.15 32.4568 123.184 32.4568ZM123.081 17.9649C125.58 17.9649 127.19 19.5103 127.19 21.8455H118.698C119.109 19.3042 120.615 17.9649 123.081 17.9649Z" fill="white"/>
<path d="M153.372 27.2369V23.3909H150.325V6.90712H144.812L133.478 23.3909V27.2369H146.182V32.0104H150.325V27.2369H153.372ZM138.135 23.3909L146.182 11.6462V23.3909H138.135Z" fill="white"/>
<path d="M167.428 14.9773C166.743 14.8056 166.161 14.7369 165.579 14.7369C163.319 14.7369 161.71 15.8701 160.991 17.5528L160.751 15.0803H156.813V32.0104H160.991V23.7686C160.991 20.4718 162.874 18.8578 165.887 18.8578H167.428V14.9773Z" fill="white"/>
<path d="M177.255 32.4568C181.672 32.4568 184.754 30.2247 185.473 26.5159H181.603C181.124 28.1299 179.618 29.0228 177.323 29.0228C174.55 29.0228 172.975 27.5117 172.666 24.5241L185.404 24.4898V23.2192C185.404 17.9306 182.186 14.5308 177.118 14.5308C172.153 14.5308 168.694 18.2053 168.694 23.5282C168.694 28.7823 172.221 32.4568 177.255 32.4568ZM177.152 17.9649C179.652 17.9649 181.261 19.5103 181.261 21.8455H172.769C173.18 19.3042 174.687 17.9649 177.152 17.9649Z" fill="white"/>
<path d="M192.925 32.0104V22.8757C192.925 20.1284 194.5 18.3427 197.069 18.3427C199.225 18.3427 200.629 19.7163 200.629 22.5667V32.0104H204.807V21.5708C204.807 17.1751 202.617 14.5308 198.371 14.5308C196.075 14.5308 194.021 15.5267 192.959 17.2438L192.617 15.0459H188.748V32.0104H192.925Z" fill="white"/>
<path d="M213.945 32.4568C216.582 32.4568 218.876 31.2549 219.595 29.5035L219.904 32.0104H223.567V21.708C223.567 17.0034 220.759 14.5308 216.206 14.5308C211.617 14.5308 208.604 16.9347 208.604 20.6091H212.164C212.164 18.8235 213.535 17.7932 215.999 17.7932C218.122 17.7932 219.492 18.7204 219.492 21.0213V21.399L214.425 21.7768C210.417 22.086 208.159 24.0434 208.159 27.1684C208.159 30.362 210.35 32.4568 213.945 32.4568ZM215.315 29.2975C213.431 29.2975 212.405 28.5421 212.405 26.9967C212.405 25.623 213.397 24.7645 215.999 24.5241L219.526 24.2494V25.1423C219.526 27.7521 217.883 29.2975 215.315 29.2975Z" fill="white"/>
<path d="M44.3302 25.9682L41.8318 14.1813C41.8097 14.0766 41.7784 13.974 41.738 13.8748C41.3831 12.6488 40.9083 12.3833 40.2679 11.8675C39.6755 11.4229 39.4206 11.2545 39.4206 11.2545C39.4206 11.2545 37.8 14.9626 37.3579 15.3144C33.0234 18.7678 25.7614 24.1487 23.9862 25.1198L23.9537 25.1372C23.3702 25.4899 22.7098 25.6984 22.0282 25.7459V43.4855C23.5439 43.4463 25.0243 43.0227 26.3278 42.2552C28.2882 41.176 33.5026 37.0276 39.6144 32.1108L42.0104 30.1855C43.6027 28.9143 44.3672 27.6517 44.3497 26.32C44.3546 26.2024 44.3479 26.0846 44.3302 25.9682Z" fill="#4D26BC"/>
<path d="M20.4635 25.3564L6.65693 15.2039C6.54176 15.1085 6.43921 14.9989 6.35173 14.8777C6.33952 14.5445 6.23873 14.2205 6.05969 13.9391C5.88065 13.6577 5.62985 13.429 5.333 13.2764L5.42113 11.2545C5.42113 11.2545 5.13312 11.4434 4.47546 11.8405C3.64802 12.3363 3.02688 12.699 2.60136 14.6501L0.273739 26.2794C0.2458 26.4206 0.233547 26.5646 0.237203 26.7085C0.284486 28.5224 1.84267 29.793 2.19944 30.0591L17.9446 42.1564C19.1217 43.0373 20.5575 43.5044 22.0282 43.4849V25.8308C21.4666 25.8651 20.9112 25.6967 20.4635 25.3564Z" fill="#2C0E83"/>
<path d="M40.8648 12.0067C40.8374 11.9872 40.8112 11.9661 40.786 11.9437C40.2917 11.5286 30.5315 4.87099 24.7578 0.940277C23.9937 0.416399 23.0834 0.143285 22.1551 0.159263C21.2267 0.175241 20.3267 0.479509 19.5813 1.02936L18.8746 1.55954C17.6494 2.47433 15.374 4.16699 12.6304 6.10735C9.48422 8.33455 6.58966 10.2727 4.01453 11.809C2.9206 12.4608 1.9098 14.223 4.67089 16.372C4.96189 16.5893 19.4872 27.2907 19.4872 27.2907C21.1544 28.5096 23.1277 28.4011 25.0859 27.2732C26.9915 26.228 33.7389 21.211 37.9944 17.8626L39.0752 17.0086C39.1758 16.9282 39.2678 16.85 39.3553 16.7718C41.1734 15.279 42.6983 13.2648 40.8648 12.0067Z" fill="#7547F5"/>
</svg>
