<svg width="102" height="16" viewBox="0 0 102 16" fill="none" xmlns="http://www.w3.org/2000/svg">
<path d="M2.56333 9.57007C16.4508 6.21967 33.7536 3.55829 53.4814 2.77813M53.4814 2.77813C66.7784 2.25227 81.1771 2.58107 96.3742 4.1296M53.4814 2.77813C46.1823 2.51144 39.1705 2.46289 32.555 2.68889M53.4814 2.77813C68.1194 3.31295 83.9129 4.72506 99.9823 6.55927M2.56333 6.55938C11.0281 4.27177 21.2087 3.07651 32.555 2.68889M32.555 2.68889C20.4445 4.15563 9.6083 6.24757 0.759277 8.56651M32.555 2.68889C52.108 0.320768 74.9826 -0.417588 98.1782 2.14976M98.8668 10.4559C84.7656 8.16588 67.3111 6.8213 47.5808 7.53601M47.5808 7.53601C34.2821 8.01774 19.9496 9.43503 4.91321 12.1289M47.5808 7.53601C54.8388 6.71783 61.8268 6.13889 68.4405 5.8637M47.5808 7.53601C33.0252 9.17684 17.3838 11.7799 1.49928 14.8247M98.639 7.45387C90.0254 5.81328 79.7836 5.39172 68.4405 5.8637M68.4405 5.8637C80.6272 6.40993 91.5906 7.67599 100.59 9.31875M68.4405 5.8637C48.7644 4.98178 25.8995 5.97627 2.96453 10.2913" stroke="url(#paint0_linear_111_135)" stroke-linecap="round"/>
<defs>
<linearGradient id="paint0_linear_111_135" x1="50.6745" y1="0.537964" x2="50.6745" y2="14.8247" gradientUnits="userSpaceOnUse">
<stop stop-color="#A372FF"/>
<stop offset="0.951042" stop-color="#46C9D2"/>
</linearGradient>
</defs>
</svg>
