<svg width="349" height="105" viewBox="0 0 349 105" fill="none" xmlns="http://www.w3.org/2000/svg">
<path d="M346.559 93.1253C346.559 95.7041 345.562 97.9253 343.883 99.6156C342.203 101.306 339.971 102.01 337.393 102.01C334.131 102.01 334.131 102.454 330.881 102.454C327.63 102.454 327.619 102.097 324.369 102.097C321.118 102.097 321.107 102.465 317.857 102.465C314.606 102.465 314.595 102.845 311.345 102.845C308.094 102.845 308.083 102.747 304.833 102.747C301.582 102.747 301.571 102.162 298.321 102.162C295.07 102.162 295.059 102.498 291.809 102.498C288.558 102.498 288.547 102.108 285.297 102.108C282.046 102.108 282.035 102.725 278.785 102.725C275.534 102.725 275.523 102.899 272.273 102.899C269.022 102.899 269.011 102.595 265.761 102.595C262.51 102.595 262.499 102.064 259.249 102.064C255.998 102.064 255.987 101.967 252.737 101.967C249.486 101.967 249.475 102.335 246.225 102.335C242.974 102.335 242.963 102.834 239.713 102.834C236.462 102.834 236.451 102.162 233.201 102.162C229.95 102.162 229.939 102.411 226.689 102.411C223.438 102.411 223.438 102.086 220.177 102.086C216.915 102.086 216.926 102.346 213.665 102.346C210.403 102.346 210.414 102.151 207.153 102.151C203.891 102.151 203.891 102.086 200.641 102.086C197.39 102.086 197.39 102.725 194.129 102.725C190.867 102.725 190.878 102.097 187.617 102.097C184.355 102.097 184.355 102.812 181.105 102.812C177.854 102.812 177.843 102.509 174.593 102.509C171.342 102.509 171.331 102.639 168.081 102.639C164.83 102.639 164.819 102.563 161.569 102.563C158.318 102.563 158.307 102.649 155.057 102.649C151.806 102.649 151.795 102.032 148.545 102.032C145.294 102.032 145.283 102.162 142.033 102.162C138.782 102.162 138.771 102.357 135.521 102.357C132.27 102.357 132.259 102.454 129.009 102.454C125.758 102.454 125.747 102.021 122.497 102.021C119.246 102.021 119.235 102.465 115.985 102.465C112.734 102.465 112.723 102.097 109.473 102.097C106.222 102.097 106.211 102.823 102.95 102.823C99.6884 102.823 99.6884 102.292 96.427 102.292C93.1656 102.292 93.1656 101.945 89.9041 101.945C86.6427 101.945 86.6427 102.259 83.3813 102.259C80.1199 102.259 80.1199 102.238 76.8585 102.238C73.5971 102.238 73.5971 102.78 70.3465 102.78C67.0959 102.78 67.0851 102.162 63.8345 102.162C60.5839 102.162 60.5731 102.541 57.3116 102.541C54.0502 102.541 54.0502 102.649 50.7888 102.649C47.5274 102.649 47.5274 102.27 44.266 102.27C41.0046 102.27 41.0046 102.584 37.7431 102.584C34.4817 102.584 34.4817 102.335 31.2311 102.335C27.9806 102.335 27.9697 102.953 24.7083 102.953C21.4469 102.953 21.4469 102.379 18.1855 102.379C14.9241 102.379 14.9241 102.465 11.6626 102.465C9.08385 102.465 6.90596 101.241 5.21566 99.5506C3.52536 97.8603 2.45266 95.6824 2.45266 93.1036C2.45266 89.9722 2.77772 89.9722 2.77772 86.8517C2.77772 83.7311 2.6477 83.7203 2.6477 80.5997C2.6477 77.4791 1.92174 77.4683 1.92174 74.3478C1.92174 71.2272 2.03009 71.2272 2.03009 68.0958C2.03009 64.9644 2.19262 64.9644 2.19262 61.8438C2.19262 58.7233 2.24679 58.7125 2.24679 55.5919C2.24679 52.4713 2.52851 52.4605 2.52851 49.3399C2.52851 46.2194 2.45266 46.2086 2.45266 43.088C2.45266 39.9674 1.82422 39.9566 1.82422 36.8252C1.82422 33.6938 1.83505 33.6938 1.83505 30.5733C1.83505 27.4527 1.83505 27.4419 1.83505 24.3105C1.83505 21.1791 2.8319 21.1791 2.8319 18.0477C2.8319 14.9163 2.14928 14.9163 2.14928 11.7849C2.14928 9.2061 3.62287 7.12573 5.31318 5.43543C7.00348 3.74513 9.08385 2.97582 11.6626 2.97582C14.9241 2.97582 14.9241 2.70494 18.1746 2.70494C21.4252 2.70494 21.4361 2.36905 24.6866 2.36905C27.9372 2.36905 27.9481 2.15234 31.1986 2.15234C34.4492 2.15234 34.4601 2.96499 37.7106 2.96499C40.9612 2.96499 40.9721 2.88914 44.2226 2.88914C47.4732 2.88914 47.4841 2.56408 50.7346 2.56408C53.9852 2.56408 53.9961 2.80246 57.2466 2.80246C60.4972 2.80246 60.5081 2.05482 63.7586 2.05482C67.0092 2.05482 67.02 2.95415 70.2706 2.95415C73.5212 2.95415 73.532 2.18485 76.7826 2.18485C80.0332 2.18485 80.0441 2.15234 83.2946 2.15234C86.5452 2.15234 86.556 2.86747 89.8066 2.86747C93.0572 2.86747 93.068 2.86747 96.3186 2.86747C99.5692 2.86747 99.58 2.60742 102.831 2.60742C106.081 2.60742 106.092 2.04399 109.343 2.04399C112.593 2.04399 112.604 2.42322 115.855 2.42322C119.105 2.42322 119.116 2.68327 122.367 2.68327C125.617 2.68327 125.617 2.24986 128.879 2.24986C132.14 2.24986 132.129 2.67244 135.391 2.67244C138.652 2.67244 138.641 2.53158 141.903 2.53158C145.164 2.53158 145.164 2.58575 148.415 2.58575C151.665 2.58575 151.665 2.02232 154.927 2.02232C158.188 2.02232 158.177 2.18485 161.439 2.18485C164.7 2.18485 164.7 2.09817 167.951 2.09817C171.201 2.09817 171.212 2.27153 174.463 2.27153C177.713 2.27153 177.724 2.79162 180.975 2.79162C184.225 2.79162 184.236 2.39072 187.487 2.39072C190.737 2.39072 190.748 1.95731 193.999 1.95731C197.249 1.95731 197.26 2.74828 200.511 2.74828C203.761 2.74828 203.772 2.39072 207.023 2.39072C210.273 2.39072 210.284 2.96499 213.535 2.96499C216.785 2.96499 216.796 2.89998 220.047 2.89998C223.297 2.89998 223.308 2.67244 226.559 2.67244C229.809 2.67244 229.82 2.93248 233.071 2.93248C236.321 2.93248 236.332 2.99749 239.583 2.99749C242.833 2.99749 242.844 2.61826 246.105 2.61826C249.367 2.61826 249.367 2.22819 252.628 2.22819C255.89 2.22819 255.89 2.4774 259.151 2.4774C262.413 2.4774 262.413 2.13067 265.674 2.13067C268.935 2.13067 268.935 2.54241 272.197 2.54241C275.458 2.54241 275.458 2.33654 278.709 2.33654C281.959 2.33654 281.97 2.33654 285.221 2.33654C288.471 2.33654 288.482 2.76995 291.744 2.76995C295.005 2.76995 295.005 2.19568 298.266 2.19568C301.528 2.19568 301.528 2.26069 304.789 2.26069C308.051 2.26069 308.051 1.94647 311.312 1.94647C314.574 1.94647 314.573 2.23902 317.824 2.23902C321.075 2.23902 321.086 2.80246 324.347 2.80246C327.608 2.80246 327.608 2.09817 330.87 2.09817C334.131 2.09817 334.131 2.73745 337.393 2.73745C339.971 2.73745 342.247 3.56093 343.937 5.25123C345.627 6.94153 347.058 9.21694 347.058 11.7957C347.058 14.9271 346.971 14.9271 346.971 18.0477C346.971 21.1682 346.386 21.1791 346.386 24.2996C346.386 27.4202 346.527 27.431 346.527 30.5516C346.527 33.6721 346.852 33.6721 346.852 36.8035C346.852 39.9349 346.375 39.9349 346.375 43.0555C346.375 46.176 346.483 46.1869 346.483 49.3074C346.483 52.428 347.003 52.4388 347.003 55.5594C347.003 58.68 347.22 58.6908 347.22 61.8113C347.22 64.9319 346.808 64.9427 346.808 68.0741C346.808 71.2055 347.242 71.2055 347.242 74.3261C347.242 77.4466 346.364 77.4575 346.364 80.5889C346.364 83.7203 346.819 83.7203 346.765 86.8517C346.711 89.983 346.548 89.983 346.548 93.1144L346.559 93.1253Z" stroke="black" stroke-width="3.25058" stroke-linecap="round" stroke-linejoin="round"/>
</svg>
