<svg width="18" height="18" viewBox="0 0 18 18" fill="none" xmlns="http://www.w3.org/2000/svg">
<path d="M17.2363 0.94337C17.3785 1.02444 17.3614 0.84097 17.3415 0.774126C17.1154 0.761326 17.2576 0.843815 17.0286 0.815371C17.0485 0.865148 17.1481 0.966126 17.0443 0.984615C17.0357 0.895015 16.9874 0.93057 16.9603 0.924881C17.0286 0.971815 16.939 0.991726 16.9433 1.03439C16.8807 1.0031 16.8523 0.862304 16.7655 0.900704L16.885 1.05004C16.8395 1.05288 16.7996 0.939104 16.7769 1.02301C16.7371 0.923459 16.6617 0.919193 16.7129 0.826748C16.5138 0.792615 16.6389 1.01875 16.6204 1.13395C16.6204 1.1183 16.6019 1.09981 16.6005 1.08417C16.6204 1.13395 16.592 1.1567 16.5806 1.18515C16.5052 1.19653 16.5564 1.08844 16.5081 1.06284L16.4384 1.13537C16.4384 1.13537 16.4299 1.12968 16.427 1.12684C16.427 1.16381 16.4199 1.19368 16.3801 1.16666C16.3587 1.10124 16.3232 1.04861 16.3033 0.998837L16.3189 1.16808C16.2834 1.11546 16.181 1.15101 16.2023 1.06568L16.1084 1.19368L16.0089 1.10977C15.9975 1.15244 16.0146 1.17093 16.0587 1.15101C15.9989 1.16666 16.0444 1.4767 15.888 1.27617C15.8738 1.43688 15.8112 1.43688 15.75 1.58621C15.7472 1.42124 15.5509 1.57199 15.5993 1.44684C15.5097 1.45679 15.5979 1.5663 15.5723 1.62177C15.4969 1.62035 15.4243 1.51368 15.4315 1.43972L15.4258 1.52932L15.4087 1.51084L15.4187 1.60328C15.3262 1.59759 15.3191 1.52079 15.2608 1.5535L15.3319 1.64452L15.2551 1.62746C15.3035 1.65306 15.2935 1.69572 15.2665 1.73555L15.2494 1.71706L15.2252 1.77252C15.2153 1.68435 15.1712 1.79101 15.1314 1.71564C15.093 1.7455 15.0944 1.74692 15.0475 1.82372L15.1129 1.86781C15.0816 1.99581 15.0276 1.78959 14.9579 1.84932L15.0261 1.90763C14.8256 1.89483 14.9294 2.12666 14.7915 2.12666C14.8156 2.07261 14.7317 2.01003 14.7488 2.02852C14.7132 2.11101 14.5995 2.19208 14.6151 2.32861C14.4999 2.26035 14.4672 2.23901 14.362 2.26177C14.3221 2.31297 14.3236 2.32861 14.362 2.39688C14.2809 2.40683 14.2524 2.54194 14.1828 2.47937C14.2268 2.54194 14.133 2.51066 14.1543 2.57892L14.1216 2.55759L14.1899 2.6159C13.968 2.55759 14.1415 2.83065 13.9381 2.79083L13.9339 2.75954L13.9268 2.81786C13.8926 2.79652 13.8898 2.76523 13.8542 2.72826L13.6907 2.87617L13.7689 2.89181C13.7433 2.93163 13.7845 3.01412 13.7092 3.01412C13.6722 2.85768 13.6551 3.0639 13.5698 3.00274L13.5769 2.94443C13.5513 2.97951 13.5617 3.01649 13.6082 3.05537C13.5726 3.13785 13.4446 2.97999 13.4617 3.1023L13.5029 3.06532C13.5527 3.0895 13.5783 3.16914 13.5513 3.19332C13.5356 3.19048 13.4887 3.18194 13.5001 3.1535C13.4802 3.22461 13.3778 3.26443 13.3835 3.30994C13.338 3.31705 13.2996 3.26443 13.2967 3.23457C13.2569 3.39101 13.2398 3.2687 13.2 3.42514L13.1644 3.38816L13.1758 3.46496L13.0492 3.44221L13.1147 3.46923C13.0891 3.50905 13.0962 3.55456 13.0364 3.57305L12.9966 3.50621C12.9369 3.62852 12.8004 3.53039 12.7932 3.69394C12.7776 3.6911 12.7733 3.65981 12.7705 3.64416C12.7804 3.80914 12.6126 3.61714 12.6411 3.80061C12.6268 3.77785 12.5956 3.76648 12.5828 3.74799V3.82052L12.5102 3.74799L12.5913 3.88168L12.4917 3.83474L12.5145 3.8831C12.3324 3.79208 12.3865 3.95136 12.2272 3.9087L12.331 3.9855C12.3964 4.30834 11.92 4.21305 11.8517 4.47047L11.7792 4.39936L11.8034 4.55154C11.7081 4.5359 11.7593 4.47047 11.7095 4.44772C11.6811 4.5615 11.792 4.57998 11.7323 4.6895C11.6398 4.6895 11.691 4.62407 11.6839 4.57714C11.6441 4.69376 11.5758 4.8559 11.4805 4.87865C11.4891 4.88861 11.499 4.90425 11.5076 4.90567C11.4919 4.99243 11.3909 5.03652 11.3412 5.10336C11.307 5.07065 11.3156 5.05074 11.3212 5.02798C11.2971 5.04647 11.2459 5.05501 11.2644 5.10621L11.2188 5.02372C11.1634 5.05927 11.142 5.20576 11.0553 5.14745C11.0894 5.16736 11.1449 5.22141 11.1051 5.25838C10.9685 5.17874 11.0553 5.41483 10.933 5.42478C10.9116 5.39207 10.9486 5.33803 10.9358 5.35083C10.8761 5.35652 10.9045 5.43474 10.9145 5.49589L10.8747 5.44612L10.8036 5.65803C10.6656 5.57838 10.6926 5.81874 10.6158 5.7334C10.5632 5.7846 10.7083 5.7334 10.6599 5.81447C10.5945 5.79029 10.6286 5.89838 10.5547 5.82869L10.5518 5.81305L10.5148 5.86709L10.4665 5.7718C10.4452 5.82869 10.4935 5.92398 10.549 5.9766C10.4722 5.98087 10.458 6.06763 10.374 6.02638L10.3684 5.99509C10.3015 6.13447 9.99858 6.0022 10.0512 6.20274C10.0341 6.19989 10.0171 6.18283 10.0299 6.17003L9.96445 6.23545L9.92178 6.17003L9.91041 6.3606L9.87343 6.32647C9.79236 6.38905 9.70987 6.527 9.63734 6.63509L9.63165 6.60522C9.59894 6.76309 9.50507 6.67776 9.4809 6.79296C9.47236 6.78158 9.47094 6.77589 9.47094 6.7702L9.41121 6.84273L9.38703 6.7958C9.42543 6.91953 9.14952 6.85269 9.24765 6.88113C9.25903 6.94229 9.26045 7.03047 9.3017 7.08025C9.24054 7.16131 9.23627 7.05749 9.16232 7.0774C9.11112 7.13002 9.17085 7.19687 9.0713 7.2438L9.0329 7.20967C9.01014 7.25091 9.0201 7.29642 8.98312 7.35189L8.97743 7.32202C8.99165 7.47136 8.7769 7.32629 8.89494 7.53393C8.83521 7.54104 8.80534 7.62638 8.72996 7.55811C8.69583 7.70176 8.65459 7.79989 8.60196 7.92647C8.45974 7.83544 8.59201 7.95491 8.46828 7.95491L8.54081 8.00753C8.4313 8.15687 8.1241 8.17962 8.02454 8.36167L7.95059 8.30904L8.00179 8.40291C7.8297 8.54655 7.62348 8.74566 7.51255 8.88077C7.51255 8.95473 7.54241 9.08984 7.45992 9.14104L7.45566 9.1254C7.39592 9.28042 7.32197 9.43544 7.17264 9.53926C7.14988 9.50655 7.11859 9.50371 7.11148 9.47384C7.1641 9.56771 7.05175 9.55633 7.02757 9.58335L7.10721 9.59188C7.14277 9.68433 7.03468 9.68717 6.96783 9.66584L6.99486 9.78673C6.9849 9.78531 6.96926 9.78246 6.95646 9.77393L6.9849 9.81375L6.86686 9.77251C6.87397 9.80237 6.83415 9.90193 6.90241 9.99722C6.86686 9.97873 6.79717 10.0157 6.81566 9.95882L6.61086 10.1594L6.67201 10.1508C6.74597 10.202 6.73744 10.3044 6.6777 10.313C6.65637 10.2234 6.58099 10.2305 6.51272 10.2091C6.52695 10.2689 6.59664 10.2319 6.62224 10.2788C6.6393 10.3542 6.59948 10.4537 6.55255 10.4495L6.54259 10.404C6.52837 10.4765 6.38615 10.404 6.35201 10.4594C6.37335 10.5505 6.2937 10.5433 6.42313 10.6287C6.3961 10.714 6.32073 10.5903 6.29228 10.6017C6.32641 10.6785 6.2169 10.7425 6.14437 10.7055C6.29513 10.8818 5.94099 10.8349 6.08037 10.9657L5.95237 10.9544C5.99077 10.9871 6.07326 11.0681 6.05477 11.125C5.97797 11.1321 5.91539 11.0681 5.86419 11.0497L5.99219 11.1933C5.64375 11.3085 5.50864 11.7124 5.17157 11.876C5.11184 12.0182 5.06917 12.2216 4.9426 12.3439L4.93548 12.314L4.79042 12.4207L4.93548 12.3723C4.9298 12.4164 4.94117 12.4619 4.917 12.4889C4.82882 12.5416 4.72642 12.6027 4.63966 12.6838L4.60695 12.7151C4.60695 12.7151 4.60126 12.7151 4.59984 12.7165C4.597 12.7165 4.59415 12.7193 4.59273 12.7236C4.58989 12.7321 4.59415 12.7464 4.60553 12.772C4.67095 12.8673 4.63397 12.836 4.597 12.7919C4.5586 12.7492 4.52162 12.6937 4.56286 12.772C4.54864 12.7492 4.53584 12.7279 4.52304 12.7051C4.55575 12.7833 4.56997 12.826 4.60553 12.9924C4.51593 12.7506 4.59557 13.0152 4.55006 12.8843L4.58277 12.9881C4.55717 12.9327 4.54153 12.9213 4.52162 12.8431C4.533 12.89 4.54295 12.9384 4.55149 12.9881L4.52162 12.8772C4.51451 12.8758 4.5074 13.0095 4.47042 12.7521C4.47753 12.8488 4.469 12.9071 4.45762 12.9256C4.4434 12.917 4.4306 12.8658 4.42349 12.8274C4.40926 12.9256 4.39789 12.9213 4.38935 12.9213C4.39504 12.8729 4.40215 12.8246 4.41069 12.7791C4.39931 12.8175 4.34669 12.9654 4.36375 12.8758C4.36802 12.863 4.37086 12.8559 4.37371 12.8459C4.35806 12.8616 4.37655 12.7947 4.3282 12.89C4.32109 12.8715 4.341 12.8075 4.3922 12.7137C4.30544 12.8857 4.3922 12.6738 4.3922 12.6738C4.3922 12.6738 4.38651 12.6568 4.37513 12.6283C4.36944 12.6155 4.36375 12.5985 4.35664 12.58C4.35237 12.5714 4.34953 12.5615 4.34526 12.5515L4.33957 12.5373C4.33957 12.5373 4.341 12.5345 4.32109 12.5089C4.08073 12.2045 3.74224 11.7963 3.33833 11.4081C2.93727 11.0169 2.47362 10.6401 2.01709 10.3812C1.56056 10.1209 1.11256 9.97731 0.766961 10.0299C0.688739 10.0826 0.579228 10.0754 0.549361 10.1821C0.472561 10.1693 0.526606 10.0186 0.461184 10.0826C0.523761 10.1935 0.313273 10.2575 0.334606 10.404L0.272028 10.3869C0.22794 10.4324 0.381539 10.3741 0.304739 10.4609L0.411406 10.3343C0.438428 10.3826 0.438428 10.4253 0.419939 10.4808C0.492472 10.4537 0.647494 10.2888 0.675939 10.4296L0.646072 10.4196C0.720027 10.4651 0.626161 10.5362 0.624739 10.5689L0.610517 10.5561L0.61905 10.6657C0.607672 10.5889 0.456917 10.6443 0.501006 10.6642C0.55505 10.7609 0.50385 10.6159 0.576383 10.6443C0.61905 10.6657 0.556472 10.7282 0.523761 10.7681L0.59345 10.8136C0.545094 10.8733 0.552206 10.7766 0.530872 10.8605H0.663139C0.560739 11.0241 0.811049 10.8548 0.735672 11.0283C0.648916 11.0184 0.701539 11.0838 0.653183 11.125L0.802516 11.2289C0.799672 11.2601 0.727138 11.2459 0.755583 11.2559C0.748472 11.3185 0.829538 11.2545 0.842338 11.2673C0.821005 11.3185 0.949005 11.3526 0.863671 11.4479C0.903494 11.5915 1.00732 11.3554 1.04856 11.4849C1.01016 11.5545 0.966071 11.4408 0.954693 11.5346L1.0642 11.5887C1.03149 11.61 0.964649 11.6697 0.941894 11.6285C1.11967 11.9144 0.97176 12.3325 1.25194 12.4463C1.21923 12.5416 1.18794 12.4733 1.12536 12.4989C1.36287 12.5458 1.19789 12.8459 1.33158 12.9554L1.38705 12.9028C1.39558 13.2427 1.70278 13.3437 1.82082 13.6125L1.83647 13.5513C1.91611 13.5272 1.96305 13.5656 2.01994 13.5755C1.99718 13.6068 1.87914 13.6651 1.95736 13.7007C1.96589 13.6708 1.96305 13.6267 1.99718 13.6082C2.00856 13.7604 2.10385 13.9211 2.22047 14.0875C2.29016 14.1828 2.36411 14.2838 2.43665 14.3819C2.54616 14.5298 2.65282 14.6806 2.74811 14.8328C2.82207 14.9096 2.8946 14.9892 2.96571 15.0717C3.03682 15.1528 3.11647 15.2608 3.19042 15.359C3.34118 15.5595 3.49193 15.77 3.64411 15.9848C3.94704 16.4114 4.25424 16.8566 4.55291 17.2278C4.59842 17.1666 4.64109 17.0984 4.68375 17.0344C4.59273 17.1723 4.62117 16.8082 4.68802 16.7897C4.79326 16.9177 4.88002 16.7741 4.9554 16.6219C5.03362 16.4669 5.10188 16.3062 5.22704 16.3161C5.38775 16.0032 5.56411 15.8283 5.7433 15.6249C5.91966 15.4273 6.09744 15.1983 6.18277 14.874L6.24677 14.9409C6.32357 14.9067 6.29655 14.837 6.34206 14.7602L6.3577 14.7816C6.50704 14.6351 6.58384 14.3734 6.69335 14.3037L6.61655 14.2354C6.65352 14.1714 6.70046 14.2539 6.69477 14.1657L6.73459 14.1985L6.7033 14.079C6.84126 14.1913 6.82277 13.9439 6.91806 13.951C6.94224 13.8657 6.97495 13.6936 7.07877 13.6153C7.16552 13.6523 7.25797 13.53 7.35468 13.4802C7.45281 13.3153 7.59361 13.0806 7.76712 12.9085L7.67326 12.8417L7.70597 12.7862C7.72588 12.8018 7.74152 12.8033 7.74579 12.8189C7.87948 12.8601 7.8041 12.6795 7.89939 12.6881C7.79699 12.6497 7.85957 12.7137 7.83539 12.7393C7.76001 12.7464 7.7017 12.6397 7.78988 12.6184L7.80979 12.6354L7.7913 12.5601C7.86668 12.6113 7.92641 12.6027 8.00037 12.6525C8.1113 12.4747 8.07717 12.2671 8.24214 12.1234C8.30757 12.2031 8.31752 11.9855 8.42845 12.1277C8.45548 11.9855 8.3033 12.0566 8.24357 11.9343C8.26774 11.9073 8.25352 11.8475 8.30899 11.8831C8.33174 11.9229 8.41139 11.9257 8.4057 11.9585L8.44837 11.8817C8.46401 11.8831 8.47112 11.9129 8.47539 11.9286C8.50383 11.7281 8.75841 11.7551 8.7769 11.5688C8.73423 11.5204 8.72428 11.6072 8.68161 11.5588C8.68019 11.3554 8.85796 11.519 8.8793 11.3469L8.92908 11.4251C8.91201 11.3497 8.8665 11.2872 8.97032 11.2687C9.05992 11.3227 8.9945 11.3739 9.00872 11.4337C9.0457 11.3938 9.1097 11.2701 9.01014 11.2445C9.02436 11.1734 9.11112 11.2118 9.15379 11.2018C9.1353 11.1848 9.06276 11.2061 9.04854 11.1464C9.1481 11.1137 9.23201 11.0056 9.30596 10.9273C9.32587 10.9444 9.36001 10.9629 9.36427 10.9771C9.31307 10.8249 9.48659 10.9771 9.53921 10.8662C9.70845 10.596 9.8649 10.1921 10.0939 9.97162C10.0313 9.83224 10.091 9.75117 10.1308 9.65446L10.2773 9.76113L10.2859 9.66015C10.3499 9.66868 10.2702 9.73126 10.3612 9.72842L10.2944 9.63313C10.3484 9.66868 10.4651 9.49517 10.475 9.68575L10.6841 9.43686C10.7339 9.38566 10.5959 9.30886 10.6798 9.27615C10.731 9.29748 10.6898 9.32166 10.7438 9.35722C10.9984 9.26051 10.6514 8.92202 10.8576 8.80255L10.8633 8.83242C10.8505 8.77269 10.9017 8.72149 10.8832 8.70442C10.7253 8.60913 10.933 8.79829 10.8078 8.78122C10.694 8.67882 10.7993 8.66318 10.7068 8.59206C10.7822 8.5878 10.7353 8.50815 10.758 8.46691C10.8818 8.46975 10.9003 8.33891 11.0297 8.37304C11.0169 8.31331 10.9301 8.18389 10.9785 8.11704C11.1079 8.14975 11.0567 8.20095 11.1435 8.16967L11.0837 8.10282C11.1364 8.06158 11.1492 8.08575 11.179 8.1142C11.2274 8.063 11.1236 7.99047 11.2245 7.96202L11.2587 8.05447C11.2757 7.98335 11.3042 7.9734 11.3682 7.9094C11.4052 7.94353 11.3796 7.96913 11.3511 7.97909C11.4834 8.02744 11.3625 7.87811 11.3909 7.86816C11.3568 7.84824 11.3028 7.88522 11.2558 7.80415C11.2971 7.77998 11.226 7.6534 11.3269 7.69749L11.3596 7.78993C11.3682 7.67473 11.3084 7.68042 11.4037 7.62069C11.4037 7.62922 11.4236 7.64202 11.4364 7.65482C11.3938 7.52967 11.5303 7.52824 11.6014 7.45856L11.6071 7.48842C11.61 7.43864 11.5644 7.36896 11.5844 7.35758C11.509 7.36753 11.499 7.33909 11.4308 7.28647C11.5915 7.32487 11.3781 7.08736 11.5232 7.05038C11.5602 7.08451 11.5872 7.14851 11.5232 7.13856C11.61 7.2694 11.7024 7.35616 11.7067 7.45856C11.7109 7.40024 11.7308 7.34478 11.7707 7.39456L11.674 7.29216C11.6896 7.26798 11.7109 7.2566 11.7252 7.24096C11.6668 7.17411 11.5787 7.18976 11.5772 7.10158C11.5915 7.01482 11.7109 7.16558 11.6711 7.1158C11.6953 7.00202 11.5858 6.98496 11.6839 6.94087C11.6868 6.95651 11.6924 6.98638 11.6768 6.98353C11.765 6.96647 11.7721 6.83705 11.9129 6.93233C11.9342 6.96505 11.9712 6.99918 11.9428 7.01056L11.9243 6.99349C11.9655 7.13145 11.9428 6.9238 12.0409 7.04042C11.9698 6.98496 12.0508 6.9238 12.0921 6.90247L12.0053 6.84558C11.8716 6.53127 12.1532 6.98638 12.2215 6.84985C12.23 6.73465 12.176 6.85696 12.1604 6.76736C12.2158 6.7318 12.2997 6.77447 12.3268 6.67633C12.3751 6.68345 12.4505 6.6806 12.5401 6.75456C12.5415 6.68202 12.6908 6.66211 12.6283 6.56398C12.4917 6.57109 12.6553 6.71473 12.469 6.69909L12.405 6.60096C12.4604 6.54691 12.4832 6.43456 12.55 6.42176C12.5259 6.41465 12.5017 6.399 12.4875 6.37909C12.5287 6.26816 12.4647 6.17003 12.5614 6.11171C12.6482 6.17003 12.5927 6.20416 12.57 6.2454C12.678 6.24825 12.6226 6.19563 12.7193 6.13731C12.7904 6.19278 12.6667 6.18709 12.725 6.25536L12.7819 6.14727C12.7819 6.14727 12.7904 6.15438 12.7961 6.16007C12.6951 6.04629 12.8658 6.10034 12.88 6.01643C12.9938 5.88843 12.8615 5.73483 12.8359 5.58265C12.8828 5.59118 12.917 5.61109 12.9383 5.6438C12.8601 5.62958 12.9042 5.65945 12.9241 5.69643C12.9511 5.6438 13.1204 5.70212 13.1431 5.76612C13.173 5.6694 13.062 5.73767 13.0649 5.66514L13.1573 5.57838C13.0905 5.53714 13.0478 5.55989 13.0478 5.47172C13.0692 5.41625 13.099 5.40772 13.1516 5.35794C13.173 5.39065 13.254 5.41909 13.2142 5.45607C13.2597 5.45038 13.2981 5.41198 13.2569 5.34656C13.1516 5.35794 13.2953 5.20576 13.1673 5.16878L13.2725 5.15741C13.2597 5.17021 13.2953 5.20576 13.2668 5.21572C13.3678 5.27829 13.2853 5.14603 13.2967 5.11758C13.3323 5.11189 13.3892 5.06638 13.4261 5.09198C13.419 5.05216 13.4788 5.02372 13.5314 5.05643C13.5399 5.01376 13.4773 5.00238 13.456 4.96967L13.5484 4.88292C13.6011 4.92132 13.7404 5.0351 13.7461 5.06638C13.7348 4.99101 13.6167 4.92416 13.6693 4.87581C13.7333 4.99101 13.8044 4.87154 13.8741 5.01661C13.9694 5.04932 14.0462 4.95972 14.0661 4.88861C14.0206 4.7919 13.978 4.90141 13.9054 4.8303C14.0021 4.67101 13.8016 4.47047 13.931 4.40647L13.8855 4.41216C13.9012 4.31261 13.904 4.32825 13.8741 4.23296C13.9509 4.33536 14.1884 4.39652 14.2624 4.27847C14.224 4.22585 14.1216 4.25145 14.0633 4.16612L14.1131 4.08647C14.1244 4.08932 14.133 4.11065 14.1372 4.13056C14.1614 4.04096 14.362 4.13341 14.2709 4.01394L14.4629 4.08079L14.3833 4.05092C14.3449 3.99972 14.3947 3.92007 14.3904 3.89021C14.4046 3.77501 14.4672 3.78781 14.5611 3.80488C14.5113 3.7807 14.3975 3.72808 14.4345 3.66123C14.5824 3.80345 14.5966 3.6015 14.672 3.67688C14.6905 3.65412 14.773 3.65981 14.7147 3.59865L14.8043 3.6911C14.6805 3.5631 14.7602 3.49056 14.7957 3.40808C14.9579 3.5887 14.8455 3.32843 15.029 3.45501C14.9209 3.32985 15.083 3.30283 14.9934 3.19474C15.0332 3.14354 15.1385 3.25448 15.1868 3.28008L15.1641 3.21608C15.2423 3.24737 15.3347 3.17057 15.4229 3.15634L15.366 3.00843L15.43 3.03688C15.4115 3.00417 15.4343 2.9487 15.3717 2.9359L15.403 2.91599C15.2921 2.80221 15.4073 2.84914 15.4101 2.75101C15.44 2.7567 15.4642 2.78657 15.4684 2.81217C15.494 2.78799 15.5424 2.85626 15.5936 2.87901C15.5467 2.86906 15.4812 2.58746 15.3632 2.60594C15.312 2.5647 15.3191 2.49217 15.3632 2.48648L15.4798 2.57181L15.403 2.4367C15.4272 2.38266 15.5083 2.42959 15.5509 2.40968C15.5253 2.44808 15.6747 2.67421 15.7543 2.58888C15.7244 2.64577 15.7586 2.72399 15.7571 2.76666C15.7785 2.75386 15.797 2.75386 15.8126 2.82354C15.8453 2.72683 15.7728 2.73963 15.8226 2.66283C15.9093 2.7567 15.9563 2.76666 16.043 2.74106L15.9349 2.71688C15.9264 2.70408 15.9207 2.6927 15.9193 2.68417C15.8937 2.68986 15.8752 2.68132 15.8368 2.65003C15.8496 2.63866 15.7984 2.46372 15.8652 2.50781C15.6604 2.43243 15.8695 2.28595 15.7429 2.24328C15.7244 2.20915 15.7643 2.15937 15.814 2.19919C15.8283 2.3215 15.9577 2.26177 16.0117 2.33288C16.006 2.28737 15.9022 2.3087 15.8951 2.24755C15.9207 2.20915 16.0003 2.24186 16.0459 2.25181L16.0501 2.28168L16.1397 2.27172C16.1027 2.2191 16.016 2.24328 16.0373 2.17359C16.0686 2.1807 16.0899 2.11101 16.1255 2.14799C16.1653 2.2319 16.2635 2.29875 16.2393 2.35279C16.2649 2.31439 16.3573 2.20061 16.2307 2.15795L16.272 2.12239C16.2094 2.10817 16.0743 2.10817 16.1397 2.01715L16.1568 2.03563L16.1426 1.91332L16.2123 1.9375C16.1895 1.91475 16.1767 1.8863 16.198 1.86781C16.2307 1.89057 16.2606 1.88203 16.2947 1.92043C16.3488 1.85928 16.299 1.81803 16.2805 1.7839C16.3075 1.7455 16.3388 1.75261 16.3758 1.82088C16.4327 1.78959 16.501 1.70284 16.5778 1.72132C16.5977 1.62177 16.5465 1.71421 16.5223 1.6175C16.7299 1.72701 16.7811 1.48808 16.8608 1.37288C16.6987 1.25768 16.8722 1.33164 16.7683 1.18515C16.7897 1.24915 16.966 1.20364 16.9177 1.32595L16.9561 1.26053C17.0656 1.30319 16.9248 1.40132 17.0798 1.45537C17.1339 1.39421 17.0258 1.20221 17.1452 1.18799C17.2163 1.3103 17.168 1.10408 17.2547 1.23066C17.2747 1.28044 17.2448 1.28755 17.2334 1.31457L17.2647 1.3231C17.4211 1.22781 17.1907 1.1695 17.1936 1.03581C17.2604 0.947637 17.3301 1.05573 17.3799 1.09839C17.4112 1.1055 17.4354 1.05288 17.4311 1.00595C17.4411 1.11404 17.2832 1.0287 17.2448 0.94337H17.2363Z" fill="black"/>
</svg>
